<svg width="1200" height="630" viewBox="0 0 1200 630" fill="none" xmlns="http://www.w3.org/2000/svg">
  <rect width="1200" height="630" fill="#0F172A"/>
  
  <defs>
    <pattern id="grid" width="40" height="40" patternUnits="userSpaceOnUse">
      <path d="M 40 0 L 0 0 0 40" fill="none" stroke="#1E293B" stroke-width="1"/>
    </pattern>
  </defs>
  <rect width="1200" height="630" fill="url(#grid)"/>

  <path d="M600 240 V340 H300 V440 M600 340 H900 V440 M300 440 V540 H150 V630 M300 540 H450 V630 M900 440 V540 H750 V630 M900 540 H1050 V630" stroke="#334155" stroke-width="16" stroke-linejoin="round"/>
  
  <circle cx="600" cy="240" r="64" fill="#F8FAFC" stroke="#0F172A" stroke-width="16"/>
  <circle cx="300" cy="440" r="56" fill="#F8FAFC" stroke="#0F172A" stroke-width="16"/>
  <circle cx="900" cy="440" r="56" fill="#F8FAFC" stroke="#0F172A" stroke-width="16"/>
  
  <circle cx="150" cy="630" r="48" fill="#E2E8F0" stroke="#0F172A" stroke-width="16"/>
  <circle cx="450" cy="630" r="48" fill="#E2E8F0" stroke="#0F172A" stroke-width="16"/>
  <circle cx="750" cy="630" r="48" fill="#E2E8F0" stroke="#0F172A" stroke-width="16"/>
  <circle cx="1050" cy="630" r="48" fill="#E2E8F0" stroke="#0F172A" stroke-width="16"/>

  <text x="600" y="120" font-family="system-ui, -apple-system, sans-serif" font-size="64" font-weight="700" fill="#F8FAFC" text-anchor="middle" letter-spacing="2">Родове Дерево</text>
  <text x="600" y="170" font-family="system-ui, -apple-system, sans-serif" font-size="28" font-weight="400" fill="#94A3B8" text-anchor="middle" letter-spacing="1">Архів Генеалогії</text>
</svg>
