<?xml version="1.0" encoding="utf-8"?>
<svg width="210mm" height="790pt" version="1.1" xmlns="http://www.w3.org/2000/svg" xmlns:xlink="http://www.w3.org/1999/xlink">
  <defs>
    <linearGradient id="a">
      <stop stop-color="#fff" offset="0"/>
      <stop stop-color="#7f7f7f" offset=".55"/>
      <stop offset="1"/>
    </linearGradient>
    <radialGradient id="c" cx="341.7" cy="506.09" r="106.83" gradientTransform="matrix(1 0 0 .85825 1.5642e-14 66.528)" gradientUnits="userSpaceOnUse">
      <stop stop-color="#fff" offset="0"/>
      <stop stop-color="#dcdcdc" offset=".35"/>
      <stop stop-color="#828282" offset="1"/>
    </radialGradient>
    <linearGradient id="f" x1="249.65" x2="294.61" y1="581.61" y2="581.61" gradientTransform="matrix(0 -1 1 0 -300.6 778.99)" gradientUnits="userSpaceOnUse" xlink:href="#a"/>
    <linearGradient id="e" x1="249.65" x2="294.61" y1="581.61" y2="581.61" gradientTransform="matrix(0 -1 -1 0 1044.7 778.99)" gradientUnits="userSpaceOnUse" xlink:href="#a"/>
    <linearGradient id="d" x1="256.57" x2="489.25" y1="525.92" y2="525.92" gradientUnits="userSpaceOnUse" spreadMethod="reflect">
      <stop stop-color="#fff" offset="0"/>
      <stop stop-color="#ffc000" offset=".5"/>
      <stop stop-color="#fff" offset="1"/>
    </linearGradient>
    <radialGradient id="b" cx="523.8" cy="6.7292" r="4.532" gradientTransform="matrix(1.3042 -3.7551e-15 3.8498e-15 1.3973 -159.18 -2.7837)" gradientUnits="userSpaceOnUse">
      <stop stop-color="#15caff" offset="0"/>
      <stop stop-color="#0065bf" stop-opacity=".74902" offset="1"/>
      <stop stop-color="#0052ff" stop-opacity=".62353" offset="1"/>
      <stop stop-color="#0374f2" stop-opacity=".59216" offset="1"/>
      <stop stop-color="#07daff" stop-opacity=".56078" offset="1"/>
      <stop stop-color="#0b8cd9" stop-opacity=".52941" offset="1"/>
      <stop stop-color="#0d86d3" stop-opacity=".51373" offset="1"/>
      <stop stop-color="#0f81cd" stop-opacity=".49804" offset="1"/>
      <stop stop-color="#0f76b1" stop-opacity="0" offset="1"/>
    </radialGradient>
  </defs>
  <g transform="translate(-611.55 83.296)">
    <g transform="matrix(1.063 0 0 1.063 1360.8 -112.47)">
      <g transform="translate(-726.97 .50656)">
        <g id="e1a" transform="translate(343.93 120.9)">
          <path d="m-22.298 217.07c-7.1921-1.7704-14.384-3.5407-21.576-5.3111 2.3236-3.0981 5.464-4.3585 6.9708-9.2944-6.5031 4.4581-7.4929-2.825-22.572-1.3278 2.7662-0.77453 7.4722-0.73229 10.238-1.5068-4.5793-2.5107-9.567-4.8172-17.209-7.1237 3.0981 0.11065 6.1963 0.2213 9.2944 0.33195-3.0981-2.213-6.1963-4.4259-9.2944-6.6389 2.5449 0.44259 5.0898 0.88518 7.6347 1.3278-8.4605-5.8809-13.654-12.374-27.219-14.274-0.41543-1.5571 7.7453-0.66389 11.618-0.99583-4.7161-5.7517-10.862-7.5215-21.193-1.2257-0.55374 4.5109 0.52608 9.1239-5.0304 12.512-1.4646 5.2336-5.2774 8.5274-9.7028 10.596-5.0898 0.99583-9.7712 0.3581-14.861 1.3539 1.6568 3.1871-20.028 5.0683-22.572-8.9625 0.44259 3.5407 0.88518 7.0814 1.3278 10.622-7.856-4.6472-17.346-6.2315-23.568-13.942v7.6347c-2.9576-6.0067-6.504-7.564-10.177-13.001-7.659-15.553-8.2048-38.406 9.1813-53.72 8.1678-6.1898 16.576-10.387 26.377-11.133 5.1672-9.488 15.439-12.136 22.751-11.108-2.8768-2.6555-6.5704-6.6384-9.4473-9.2939 13.667 1.4983 14.368 8.5098 24.053 7.9661-5.2849-3.6086-7.3027-6.1963-10.954-9.2944 4.5366 1.9917 9.0731 3.9833 13.61 5.975-1.4384-1.881-2.8768-3.762-4.3153-5.643 5.5837 5.217 13.311 5.4313 18.589 12.282 0.11065-2.3236-0.3913-5.2598-0.28065-7.5834 12.705 7.9168 16.936 21.653 18.206 34.471 1.9497-14.478-7.746-21.209-4.9792-30.539 5.5324 6.4176 11.065 12.835 16.597 19.253-0.11065-2.5449-0.22129-5.0898-0.33194-7.6347 2.9538 6.6635 7.7453 8.6305 11.618 12.946-0.55324-2.8768-1.1065-5.7537-1.6597-8.6305 7.5487 21.665 11.218 14.233 15.601 28.547-0.2213-2.1023-0.44259-4.2046-0.66389-6.3069 10.551 3.6016 9.055 13.737 8.886 20.198 4.7578-0.39682 11.456 16.563 16.213 24.64 4.2207 9.2944 2.0093 18.895 3.7796 28.189-4.9791 1.881-9.9583 3.762-14.937 5.643z" fill="#fff" fill-rule="evenodd" stroke="#000" stroke-linecap="round" stroke-width="2.4803"/>
          <path d="m-144.2 158.89c-7.2561 8.1522-2.3207 19.315 5.7755 23.102" fill="none" stroke="#000" stroke-linecap="round" stroke-width="2.0622"/>
          <path d="m-132.08 183.15c1.5716 13.13 17.743 15.121 23.68 4.6204" fill="none" stroke="#000" stroke-linecap="round" stroke-width="2.0622"/>
          <path d="m-156.91 176.8c1.4666 6.2761 4.8899 11.649 9.8184 13.861" fill="none" stroke="#000" stroke-linecap="round" stroke-width="2.0622"/>
          <path d="m-162.08 175.64c0.69657 5.9085 3.3498 11.215 7.5082 15.016" fill="none" stroke="#000" stroke-linecap="round" stroke-width="2.0622"/>
          <path d="m-121.53 172.5c7.1546-5.408 13.557-1.0326 15.443 5.45" fill="none" stroke="#000" stroke-linecap="round" stroke-width="2.0622"/>
          <path d="m-121.68 168.71c10.844-4.5364 20.333 2.3662 20.792 12.129" fill="none" stroke="#000" stroke-linecap="round" stroke-width="2.0622"/>
          <path d="m-132.65 158.32c9.2058-6.2516 25.185 2.0967 23.102 9.2408" fill="none" stroke="#000" stroke-linecap="round" stroke-width="2.0622"/>
          <path d="m-25.074 202.44c-3.9133-0.10035-8.1277-0.3512-11.891 1.3546" fill="none" stroke="#000" stroke-linecap="round" stroke-width="1.7079"/>
          <path d="m-23.569 209.82c-5.4185 0.20068-7.0741 0.25085-10.837 3.6123" fill="none" stroke="#000" stroke-linecap="round" stroke-width="1.7079"/>
          <path d="m-22.967 199.13c-5.268-3.3615-14.299-5.9704-23.179-2.8598 4.0137-6.4219 14.499-4.114 22.878-0.30102-5.4686-7.9772-17.56-9.1813-30.404-6.7731 6.5724-3.1608 16.155-4.2144 25.136-0.60205-4.7663-8.4789-20.972-10.185-32.812-9.4823 5.6192-3.1106 17.108-2.3079 23.781-1.5051-7.927-6.3216-22.627-7.3752-36.123-5.1174 8.6796-4.6659 21.273-3.9133 33.715 0.30103-6.5724-11.188-30.303-16.055-37.327-5.87 2.6591-11.489 15.854-5.8198 23.781-8.7298-9.7332-4.8666-15.854-7.927-30.103 4.3649 2.057-7.2246 16.005-13.095 23.029-10.837-3.5621-3.512-11.038-2.9601-19.868-1.0536 2.2577-3.4618 10.686-1.3546 13.245-4.5154-5.9202-2.8096-13.044 0.55188-15.202-1.6556-3.4116-3.6625-4.8666-10.335-3.6123-16.406 1.4048 7.1745 4.0137 14.048 7.0741 13.847-5.2178-10.837-7.8769-25.587-0.30103-32.962-8.1779 19.667 7.1243 33.464 10.235 34.618 0.3512-3.6123 0.70239-7.2246 1.0536-10.837 1.6556 9.5325 2.7092 14.7 9.4823 16.406-1.6556-10.937-1.6556-21.122 0.45154-27.845 0.40137 12.392 0.20069 29.902 6.6226 34.468 0-14.65 0.90308-21.323 3.6123-28.598-1.756 13.747-3.9635 26.591 2.4082 34.016 0.95325-9.1813 0.55189-13.998 5.1175-18.513-3.3113 9.5827-2.7092 17.51-0.90308 23.781 1.9065-7.7264 3.6625-12.894 9.3318-16.406-6.5724 9.2817-6.2212 16.306-4.3649 22.878 1.2041-6.9738 4.3649-10.937 8.1277-11.891-5.268 6.0205-6.171 16.105-0.90308 21.222 1.4048-3.512 0.70239-7.325 4.2144-10.536 3.7628 4.8666 10.084 5.5188 13.095 10.084l2.8598 12.041c-7.3752-7.6762 0-9.9339-15.804-19.868-2.6089 8.2782 0.05018 15.804 2.7092 18.814 0.10034-5.87 1.5553-8.7298 3.4618-10.385 0.3512 4.7663 0.10034 8.7799 0.45154 13.546-1.6556 1.0536-3.3113 2.1072-4.9669 3.1608z" fill="#282421" fill-rule="evenodd" stroke="#000100" stroke-width="1px"/>
          <path d="m-145.33 112.95c-3.628 3.5848-5.5167 7.7907-6.7842 11.872-5.7287-0.87869-8.7242 0.47885-14.204 5.9362 0.55467-0.18213 1.2371 0.59724 1.664 0.19902 4.8013-4.4785 11.342-5.7268 12.292-3.2481-0.07067 2.1907-0.14134 1.3998-0.21201 3.5905-4.4112 2.0791-14.164 2.4188-16.712 11.331 5.2272-5.7548 12.194-8.0311 17.173-8.6923 0.14134 1.9081 0.0342 3.9404 0.42401 5.7242-10.794 1.9048-18.606 10.146-21.201 19.505 0.29734-0.52416 1.9354 0.05661 2.6575-1.803 2.6746-6.8885 10.998-14.892 18.967-15.369 0.82866 3.2359 2.2785 5.6022 3.6041 7.8442-5.0859 0.01837-9.3021 3.0184-16.749 11.236 0.67536-0.37145 2.4578 0.41184 2.98-0.27968 4.4947-5.9521 10.971-10.03 13.981-9.0486 5.0026 7.9456 8.7629 10.176 13.144 15.264 1.8235-1.434-4.801-7.589-7.6984-12.253-1.4712-6.6119 21.781-4.7758 21.055-7.0395 3.7112-1.2811 6.9256 0.17101 10.388 2.1201-1.8477-2.3001-3.9439-6.9607-10.388-4.6641-1.4033 2.4928-17.963 0.38882-22.473 6.3602-1.5547-1.9081-2.2398-2.9465-3.0491-5.7242 2.2662-7.7233 15.465-9.1105 25.31-9.7523-7.1821-2.3718-19.334-2.3831-27.137 5.9294-1.435-2.788-1.2549-3.3398-1.1991-7.246 4.1878-8.9576 16.575-10.834 23.248-5.2556-1.8103-5.822-15.423-8.0411-23.072 1.0452-0.05583-3.4308 0.63377-6.1162 1.9445-8.6774 6.7261-8.4822 16.185-4.7894 23.036-0.84802-1.9196-5.9759-14.524-8.8459-20.667-4.5102 0.28041-1.9981 0.8093-2.1326 1.5867-3.758l-1.9081 0.21201z" fill-rule="evenodd" stroke="#000" stroke-width=".29055"/>
          <path d="m-108.41 152.35c7.7243-0.74533 10.773 6.8434 12.806 19.107 0.33878-7.7243 12.467-14.635 1.0164-21.343 1.2196 0.40654 2.4392 0.81309 3.6589 1.2196-0.06776-4.1332 0.06776-8.2663-5.6916-10.57-5.8948-1.8294-9.3504-5.0818-10.367-14.026" fill="none" stroke="#000" stroke-linecap="round" stroke-width="2.7709"/>
          <path d="m-89.103 140.97c-7.3178-3.7266-6.9112-15.584-10.977-17.278" fill="none" stroke="#000" stroke-width="2.4165"/>
          <path d="m-86.257 127.75c-4.2009-0.13551-8.4018-3.1168-9.5537-8.9439-3.6589-6.0981-9.9603-9.5537-20.734-4.2687" fill="none" stroke="#000" stroke-linecap="round" stroke-width="2.4165"/>
          <path d="m-120.41 138.73c7.8598-0.20327 4.9462 2.8458 11.383 2.4392" fill="none" stroke="#000" stroke-linecap="round" stroke-width="2.4165"/>
        </g>
        <g id="del_e1a" transform="translate(-175.09 142.44)">
          <path d="m600.11 196.23c7.1921-1.7704 14.384-3.5407 21.576-5.3111-2.3236-3.0981-5.464-4.3585-6.9708-9.2944 6.5031 4.4581 7.4929-2.825 22.572-1.3278-2.7662-0.77453-7.4722-0.73229-10.238-1.5068 4.5793-2.5107 9.567-4.8172 17.209-7.1237-3.0981 0.11065-6.1963 0.2213-9.2944 0.33195 3.0981-2.213 6.1963-4.4259 9.2944-6.6389-2.5449 0.44259-5.0898 0.88518-7.6347 1.3278 8.4605-5.8809 13.654-12.374 27.219-14.274 0.41543-1.5571-7.7453-0.66389-11.618-0.99583 4.7161-5.7517 10.862-7.5215 21.193-1.2257 0.55374 4.5109-0.52608 9.1239 5.0304 12.512 1.4646 5.2336 5.2774 8.5274 9.7028 10.596 5.0898 0.99583 9.7712 0.3581 14.861 1.3539-1.6568 3.1871 20.028 5.0683 22.572-8.9625-0.44259 3.5407-0.88518 7.0814-1.3278 10.622 7.856-4.6472 17.346-6.2315 23.568-13.942v7.6347c2.9576-6.0067 6.504-7.564 10.177-13.001 7.659-15.553 8.2048-38.406-9.1813-53.72-8.1678-6.1898-16.576-10.387-26.377-11.133-5.1672-9.488-15.439-12.136-22.751-11.108 2.8768-2.6555 6.5704-6.6384 9.4473-9.2939-13.667 1.4983-14.368 8.5098-24.053 7.9661 5.2849-3.6086 7.3027-6.1963 10.954-9.2944-4.5366 1.9917-9.0731 3.9833-13.61 5.975 1.4384-1.881 2.8768-3.762 4.3153-5.643-5.5837 5.217-13.311 5.4313-18.589 12.282-0.11065-2.3236 0.3913-5.2598 0.28065-7.5834-12.705 7.9168-16.936 21.653-18.206 34.471-1.9497-14.478 7.746-21.209 4.9792-30.539-5.5324 6.4176-11.065 12.835-16.597 19.253 0.11065-2.5449 0.22129-5.0898 0.33194-7.6347-2.9538 6.6635-7.7453 8.6305-11.618 12.946 0.55324-2.8768 1.1065-5.7537 1.6597-8.6305-7.5487 21.665-11.218 14.233-15.601 28.547 0.2213-2.1023 0.44259-4.2046 0.66389-6.3069-10.551 3.6016-9.055 13.737-8.886 20.198-4.7578-0.39682-11.456 16.563-16.213 24.64-4.2207 9.2944-2.0093 18.895-3.7796 28.189 4.9791 1.881 9.9583 3.762 14.937 5.643z" fill="#fff" fill-rule="evenodd" stroke="#000" stroke-linecap="round" stroke-width="2.4803"/>
          <path d="m722.02 138.05c7.2561 8.1522 2.3207 19.315-5.7755 23.102" fill="none" stroke="#000" stroke-linecap="round" stroke-width="2.0622"/>
          <path d="m709.89 162.31c-1.5716 13.13-17.743 15.121-23.68 4.6204" fill="none" stroke="#000" stroke-linecap="round" stroke-width="2.0622"/>
          <path d="m734.73 155.95c-1.4666 6.2761-4.8899 11.649-9.8184 13.861" fill="none" stroke="#000" stroke-linecap="round" stroke-width="2.0622"/>
          <path d="m739.9 154.8c-0.69657 5.9085-3.3498 11.215-7.5082 15.016" fill="none" stroke="#000" stroke-linecap="round" stroke-width="2.0622"/>
          <path d="m699.35 151.66c-7.1546-5.408-13.557-1.0326-15.443 5.45" fill="none" stroke="#000" stroke-linecap="round" stroke-width="2.0622"/>
          <path d="m699.5 147.87c-10.844-4.5364-20.333 2.3662-20.792 12.129" fill="none" stroke="#000" stroke-linecap="round" stroke-width="2.0622"/>
          <path d="m710.47 137.47c-9.2058-6.2516-25.185 2.0967-23.102 9.2408" fill="none" stroke="#000" stroke-linecap="round" stroke-width="2.0622"/>
          <path d="m602.89 181.6c3.9133-0.10035 8.1277-0.3512 11.891 1.3546" fill="none" stroke="#000" stroke-linecap="round" stroke-width="1.7079"/>
          <path d="m601.39 188.98c5.4185 0.20068 7.0741 0.25085 10.837 3.6123" fill="none" stroke="#000" stroke-linecap="round" stroke-width="1.7079"/>
          <path d="m600.78 178.29c5.268-3.3615 14.299-5.9704 23.179-2.8598-4.0137-6.4219-14.499-4.114-22.878-0.30102 5.4686-7.9772 17.56-9.1813 30.404-6.7731-6.5724-3.1608-16.155-4.2144-25.136-0.60205 4.7663-8.4789 20.972-10.185 32.812-9.4823-5.6192-3.1106-17.108-2.3079-23.781-1.5051 7.927-6.3216 22.627-7.3752 36.123-5.1174-8.6796-4.6659-21.273-3.9133-33.715 0.30103 6.5724-11.188 30.303-16.055 37.327-5.87-2.6591-11.489-15.854-5.8198-23.781-8.7298 9.7332-4.8666 15.854-7.927 30.103 4.3649-2.057-7.2246-16.005-13.095-23.029-10.837 3.5621-3.512 11.038-2.9601 19.868-1.0536-2.2577-3.4618-10.686-1.3546-13.245-4.5154 5.9202-2.8096 13.044 0.55188 15.202-1.6556 3.4116-3.6625 4.8666-10.335 3.6123-16.406-1.4048 7.1745-4.0137 14.048-7.0741 13.847 5.2178-10.837 7.8769-25.587 0.30103-32.962 8.1779 19.667-7.1243 33.464-10.235 34.618-0.3512-3.6123-0.70239-7.2246-1.0536-10.837-1.6556 9.5325-2.7092 14.7-9.4823 16.406 1.6556-10.937 1.6556-21.122-0.45154-27.845-0.40137 12.392-0.20069 29.902-6.6226 34.468 0-14.65-0.90308-21.323-3.6123-28.598 1.756 13.747 3.9635 26.591-2.4082 34.016-0.95325-9.1813-0.55189-13.998-5.1175-18.513 3.3113 9.5827 2.7092 17.51 0.90308 23.781-1.9065-7.7264-3.6625-12.894-9.3318-16.406 6.5724 9.2817 6.2212 16.306 4.3649 22.878-1.2041-6.9738-4.3649-10.937-8.1277-11.891 5.268 6.0205 6.171 16.105 0.90308 21.222-1.4048-3.512-0.70239-7.325-4.2144-10.536-3.7628 4.8666-10.084 5.5188-13.095 10.084l-2.8598 12.041c7.3752-7.6762 0-9.9339 15.804-19.868 2.6089 8.2782-0.05018 15.804-2.7092 18.814-0.10034-5.87-1.5553-8.7298-3.4618-10.385-0.3512 4.7663-0.10034 8.7799-0.45154 13.546 1.6556 1.0536 3.3113 2.1072 4.9669 3.1608z" fill="#282421" fill-rule="evenodd" stroke="#000100" stroke-width="1px"/>
          <path d="m723.14 92.102c3.628 3.5848 5.5167 7.7907 6.7842 11.872 5.7287-0.87869 8.7242 0.47885 14.204 5.9362-0.55467-0.18213-1.2371 0.59724-1.664 0.19902-4.8013-4.4785-11.342-5.7268-12.292-3.2481 0.07067 2.1907 0.14134 1.3998 0.21201 3.5905 4.4112 2.0791 14.164 2.4188 16.712 11.331-5.2272-5.7548-12.194-8.0311-17.173-8.6923-0.14134 1.9081-0.0342 3.9404-0.42401 5.7242 10.794 1.9048 18.606 10.146 21.201 19.505-0.29734-0.52416-1.9354 0.05661-2.6575-1.803-2.6746-6.8885-10.998-14.892-18.967-15.369-0.82866 3.2359-2.2785 5.6022-3.6041 7.8442 5.0859 0.01837 9.3021 3.0184 16.749 11.236-0.67536-0.37145-2.4578 0.41184-2.98-0.27968-4.4947-5.9521-10.971-10.03-13.981-9.0486-5.0026 7.9456-8.7629 10.176-13.144 15.264-1.8235-1.434 4.801-7.589 7.6984-12.253 1.4712-6.6119-21.781-4.7758-21.055-7.0395-3.7112-1.2811-6.9256 0.17101-10.388 2.1201 1.8477-2.3001 3.9439-6.9607 10.388-4.6641 1.4033 2.4928 17.963 0.38882 22.473 6.3602 1.5547-1.9081 2.2398-2.9465 3.0491-5.7242-2.2662-7.7233-15.465-9.1105-25.31-9.7523 7.1821-2.3718 19.334-2.3831 27.137 5.9294 1.435-2.788 1.2549-3.3398 1.1991-7.246-4.1878-8.9576-16.575-10.834-23.248-5.2556 1.8103-5.822 15.423-8.0411 23.072 1.0452 0.05583-3.4308-0.63377-6.1162-1.9445-8.6774-6.7261-8.4822-16.185-4.7894-23.036-0.84802 1.9196-5.9759 14.524-8.8459 20.667-4.5102-0.28041-1.9981-0.8093-2.1326-1.5867-3.758l1.9081 0.21201z" fill-rule="evenodd" stroke="#000" stroke-width=".29055"/>
          <path d="m686.23 131.51c-7.7243-0.74533-10.773 6.8434-12.806 19.107-0.33878-7.7243-12.467-14.635-1.0164-21.343-1.2196 0.40654-2.4392 0.81309-3.6589 1.2196 0.06776-4.1332-0.06776-8.2663 5.6916-10.57 5.8948-1.8294 9.3504-5.0818 10.367-14.026" fill="none" stroke="#000" stroke-linecap="round" stroke-width="2.7709"/>
          <path d="m666.92 120.12c7.3178-3.7266 6.9112-15.584 10.977-17.278" fill="none" stroke="#000" stroke-width="2.4165"/>
          <path d="m664.07 106.91c4.2009-0.13551 8.4018-3.1168 9.5537-8.9439 3.6589-6.0981 9.9603-9.5537 20.734-4.2687" fill="none" stroke="#000" stroke-linecap="round" stroke-width="2.4165"/>
          <path d="m698.22 117.89c-7.8598-0.20327-4.9462 2.8458-11.383 2.4392" fill="none" stroke="#000" stroke-linecap="round" stroke-width="2.4165"/>
        </g>
        <g id="e1b">
          <path d="m335.19 343.62c5.1553 14.362 33.817 16.123 34.125-10.954-6.7166-55.122-6.4055-92.796-23.3-147.43-3.2265-10.827-10.33-12.446-11.861-28.847-0.54335 3.9845-1.0867 7.9691-1.63 11.954-5.1477-11.9-3.9947-20.407-1.63-29.884-1.9923 5.2524-4.7115 7.5967-5.9768 15.757-2.3545-7.2446-3.7397-14.489-7.0635-21.734-3.8849-5.8033 3.1351-7.4869 6.5202-10.867-10.408 3.2423-13.061 6.4847-10.867 24.994-0.34955-15.719-7.9691-18.836-11.954-28.254-1.2881-5.6273 3.4821-8.3465 13.584-5.9768-12.096-7.3464-19.346-0.3952-17.387 13.584-0.65817-6.038-1.074-12.561-7.0635-17.387-2.8978-3.8034-6.765-5.1835-8.6935-11.41-1.0356 8.0966 3.2601 12.316 4.8901 18.474-7.324-15.877-46.641-16.535-58.589 4.8502-14.407-6.2372-42.05 13.308-40.3 41.878 1.9209-9.1807 8.2038-18.119 15.214-23.907-10.954 12.867-14.637 22.583-10.324 32.057 4.5456 7.5507 5.214 16.798-1.63 19.017 10.226-1.6123 8.094-11.464 9.8389-20.104 1.0842-8.2828 2.8953-10.992 5.9181-14.67-8.6041 13.469-4.1222 27.422 1.0867 35.318 4.7141 5.6758 8.4588 9.6553 9.7802 16.3 2.1172-3.8621 2.7805-8.4512 1.7474-13.283 5.954 11.79 18.936 21.884 38.46 20.346-12.872-4.9387-23.805-12.058-25.53-25.236 4.9973 11.545 13.872 19.213 24.201 21.308 7.2522 0.9744 11.354-0.47453 15.456-3.1351-3.4412-1.2678-6.8824-2.5356-10.324-3.8034 27.381 6.9407 29.802-25.861 2.1734-29.341 14.456 2.3317 19.219 5.6327 21.558 17.9 1.5102-5.9181 1.0816-6.9896-0.80088-12.181 6.2394 3.9208 4.7242 13.173 3.6937 19.275 1.9923-4.709 4.7115-6.0254 4.5228-11.704-0.22966-4.107-3.3673-8.4563-9.4129-13.29 6.6477 3.3162 8.691 5.1784 11.219 8.4947-1.7782-16.326-7.9184-20.293-30.779-22.078 13.591-2.8721 32.999 3.222 32.292 20.948-1.1838 15.846-12.061 21.757-21.969 23.063 5.737 1.8673 11.716 4.4616 15.757 9.2369-4.5279-0.18112-9.0558-0.36223-13.584-0.54335 10.808 3.6122 23.555 10.132 30.971 19.56-4.709-1.8112-5.5407-5.561-12.915-5.4335 6.7064 3.0739 8.8084 10.752 14.545 13.584-3.8034 0.18111-7.6068 0.36223-11.41 0.54334 7.6706 7.362 17.765 13.028 20.104 24.994-3.5788 0.34955-4.2497-0.02789 3.8034 11.954-5.816-2.0687 0 5.0712 0 7.6068 13.558 21.992 14.272 48.345 13.532 58.462z" fill="#fff" fill-rule="evenodd" stroke="#000" stroke-width="2.4803"/>
          <path d="m226 119.73c-1.1264 6.2944-2.054 12.191-0.99386 17.094-6.427 0.13251-16.233-2.319-19.281 15.902 2.8491-6.6257 5.3006-9.6736 10.336-12.125 3.5779-1.3914 6.7582-0.99386 9.541 0 0.53006 2.5178 1.0601 5.0356 1.5902 7.5533-11.197 8.1496-11.264 11.926-10.932 26.834 0.46974-0.92458 1.6936 0.44628 1.608-0.58725-0.86729-10.472 3.6322-23.527 10.318-23.464 1.5239 2.8491 3.0478 5.6981 4.5718 8.5472-7.222 3.5116-6.4932 13.384 0.59631 17.094-3.3129-7.0233-3.0478-10.667 1.1926-13.318l5.7644 5.7644c-0.86134 5.1018 0.26503 10.005 3.3791 13.516-1.0601-4.4392-2.1202-8.2822-0.19877-10.336 0.9276-1.7889 3.4454-1.1926 5.1681-1.7889-2.3853-0.72883-5.3668-1.8552-7.7521-4.5718-0.72883-1.1926-0.86135-2.584 0.19877-4.7705 2.1202-2.054 5.6319-3.1141 11.131-3.1803-3.8429-1.3914-7.8846-1.789-12.324 2.1865-1.3914 0.19877-2.584 1.5902-4.1742-0.59632-1.9877-2.9153-3.5779-6.427-5.1681-9.7398-0.53006-4.3067 3.3129-7.222 8.5472-8.3484 5.5656-1.0601 12.92-0.53006 18.486 1.7889-3.3791-3.1804-9.3423-4.1742-15.504-4.5718-5.1018-0.4638-9.2098 2.4515-12.324 4.9693-0.79509-3.1804-1.5902-6.3607-2.3853-9.541 5.1018-4.8368 17.558-8.4809 26.635-8.5472-8.1496-2.6503-17.492-0.13251-26.238 4.5718-0.72883-3.3791 0.53006-6.7582 0.79509-10.137-0.86134-0.06626-1.7227-0.13251-2.584-0.19877z" fill="#2a2625" fill-rule="evenodd"/>
          <path d="m215.47 148.55c-1.9877 0.13251-3.5779 2.6503-4.7705 4.5718" fill="none" stroke="#000" stroke-linecap="round" stroke-width="2.0622"/>
          <path d="m238.92 133.64c2.9816 3.6442 4.9693 3.1141 6.5595 0.79509" fill="none" stroke="#000" stroke-linecap="round" stroke-width="1.7079"/>
          <path d="m214.47 182.74 3.7767 7.5533" fill="none" stroke="#000" stroke-linecap="round" stroke-width="2.0622"/>
          <path d="m244.69 192.28c2.1202 3.4454 4.2405 6.2944 6.957 7.9509" fill="none" stroke="#000" stroke-linecap="round" stroke-width="2.4165"/>
          <path d="m259.99 187.71c1.7227 3.8429 3.6441 5.8969 6.3607 6.7582" fill="none" stroke="#000" stroke-linecap="round" stroke-width="1.7079"/>
          <path d="m268.54 186.31c0.06626 3.5116 1.3251 5.6319 3.1804 6.957" fill="none" stroke="#000" stroke-linecap="round" stroke-width="2.0622"/>
          <path d="m256.42 115.55h3.9754" fill="none" stroke="#000" stroke-linecap="round" stroke-width="1.7079"/>
          <path d="m259.4 127.08c3.2466-0.19877 4.5055 1.1926 4.373 2.3853" fill="none" stroke="#000" stroke-linecap="round" stroke-width="1.7079"/>
          <path d="m257.81 134.24h4.7705" fill="none" stroke="#000" stroke-linecap="round" stroke-width="1.7079"/>
          <path d="m257.61 147.55c2.2528-0.66257 6.4932 1.0601 6.7582-1.9877" fill="none" stroke="#000" stroke-linecap="round" stroke-width="1.7079"/>
          <path d="m320.02 167.03c-4.7844 4.3109-12.61 15.119-8.5472 27.033-4.1995-3.6908-7.4314-8.0728-5.9632-17.293-0.86134 2.3853-0.61679 3.5264-2.4458 5.4969-2.3533-0.14155-2.7714-0.00662-3.7423-3.3276-0.09487-2.9611-0.0515-3.5722 2.2037-4.598 2.9816 1.1926 6.1014 3.3529 7.9771 1.6426-2.3247-1.6941-5.8936-2.697-6.9742-5.7734 1.2565-8.5839 5.8306-12.191 8.746-18.287-4.2977 1.991-7.4895 5.6409-8.746 10.535-1.8429-8.8327-1.4739-18.91 3.1803-29.816-4.9283 3.9444-7.7831 10.792-8.1496 18.883-5.7511-6.4613-8.3228-11.125 0.99386-16.896-2.7452-0.91857-4.108 0.9276-6.1619 1.3914l-7.9509-10.932c-1.9582-2.6994-1.5664-5.537 1.5902-9.3423-2.4572 1.0577-6.8498 1.8389-6.6805 9.2555-3.3963-1.5721-7.622-1.7618-9.2212 2.472 6.0433-0.24456 9.8747-0.07439 12.324 2.584 2.4515 2.7828 4.903 5.5656 7.3546 8.3484-1.3161 3.8282 0.13251 5.1681 0.19877 7.7521-7.7373 0.66167-16.166-2.8238-19.48-7.5533-0.30329 9.0959 15.014 8.1006 22.037 10.976 7.9696 5.4765 9.442 15.1 7.0437 20.3-2.3943-11.859-6.3092-7.5969-11.192-14.778 3.3701 6.2363 7.8461 7.9108 5.9632 13.318 1.7227 5.3006 0.40416 5.4864 5.1681 15.902 4.2405 4.7705 8.4809 9.541 12.721 14.312-5.1166-3.8249-12.307-3.2261-19.082-3.1804 23.052 4.6512 25.367 9.8554 35.978 32.201-9.4838-8.7484-19.935-15.976-32.599-21.269 12.966 8.8818 27.038 18.731 35.58 31.207-8.3803-6.4784-15.931-13.372-27.629-15.703 25.173 13.341 31.269 16.591 35.706 45l-34.895-26.842c1.6524 1.4376-1.4458 0.10104 0.17069 1.4421 28.729 23.834 36.992 27.415 39.086 45.196-8.6709-9.4815-16.236-15.231-26.842-21.809 10.06 9.269 27.169 20.75 28.52 31.54-8.1645-6.2632-16.191-13.909-24.493-18.789 8.5 9.0592 26.953 18.671 25.5 27.178-6.2381-6.1401-8.0526-5.3684-12.079-8.0526 11.365 9.4288 13.607 10.149 15.434 22.48-4.8092-3.579-8.5125-7.5726-14.428-10.737 5.2704 5.9478 11.785 7.6102 12.079 15.77-2.3487-0.89474-4.6974-1.7895-7.0461-2.6842 1.5658 1.6776 3.1316 3.3553 4.6974 5.0329 2.4605 3.2434 4.921 6.4868 7.3816 9.7303 0.44737 5.8158 0.89474 11.632 1.3421 17.447l3.0197-1.3421c-0.22368-5.3684-0.44737-10.737-0.67105-16.105-0.7829-6.8224-1.5658-13.645-2.3487-20.467 0.55921-4.1382 1.1184-8.2763 1.6776-12.414-1.1184 0.89474-2.2368 1.7895-3.3553 2.6842-0.68492-5.4865-0.12571-10.42 1.6776-18.118-1.2303 2.125-2.4605 4.25-3.6908 6.375-2.0346-8.6722 1.322-13.336 3.0197-19.796-2.0132 3.2434-4.0263 6.4868-6.0395 9.7303 1.2303-9.954-3.4837-23.364 3.6908-29.862-4.9488 2.3084-4.9211 7.3816-7.3816 11.072 0.20222-7.0988 3.7221-15.442 9.7303-20.467-3.8026 4.1382-7.6053 8.2763-11.408 12.414 1.9993-6.2041 5.2427-12.685 9.7303-17.783-3.3289 1.5971-8.1783 6.0972-10.401 13.086-6.5638-9.5795 1.249-18.33 4.3618-25.836-3.9874 1.5179-6.0395 9.3948-9.0592 14.092-7.6232-13.803-5.8462-15.441 2.0132-38.921-5.0669 5.0052-6.2632 14.987-9.3947 22.48-8.1435-12.835-2.8779-25.671 3.3553-38.921-6.0408 6.6967-8.9022 15.329-11.072 23.822-5.2995-10.401-2.1666-19.42 2.3487-31.204-3.8492 4.4786-6.1777 12.137-9.0592 22.145-3.2958-10.175-1.2004-21.594 4.6274-33.427z" fill="#282421" fill-rule="evenodd"/>
          <path d="m272.16 148.96c0.35398 3.287 10.265 1.4159 11.074 5.7648" fill="none" stroke="#000" stroke-linecap="round" stroke-width="2.0622"/>
          <path d="m260.02 109.06c8.5461 2.1239 15.878 2.2756 16.536 10.923 0.35398-0.25284 0.70796-0.50569 1.0619-0.75853 0.65739-8.3944-4.2983-11.631-16.232-10.619-0.45511 0.15171-0.91023 0.30341-1.3653 0.45512z" fill="#2a2625" fill-rule="evenodd" stroke="#000" stroke-width="1px"/>
        </g>
        <g id="del_e1b" transform="matrix(-1 0 0 1 747.78 0)">
          <path d="m335.19 343.62c5.1553 14.362 33.817 16.123 34.125-10.954-6.7166-55.122-6.4055-92.796-23.3-147.43-3.2265-10.827-10.33-12.446-11.861-28.847-0.54335 3.9845-1.0867 7.9691-1.63 11.954-5.1477-11.9-3.9947-20.407-1.63-29.884-1.9923 5.2524-4.7115 7.5967-5.9768 15.757-2.3545-7.2446-3.7397-14.489-7.0635-21.734-3.8849-5.8033 3.1351-7.4869 6.5202-10.867-10.408 3.2423-13.061 6.4847-10.867 24.994-0.34955-15.719-7.9691-18.836-11.954-28.254-1.2881-5.6273 3.4821-8.3465 13.584-5.9768-12.096-7.3464-19.346-0.3952-17.387 13.584-0.65817-6.038-1.074-12.561-7.0635-17.387-2.8978-3.8034-6.765-5.1835-8.6935-11.41-1.0356 8.0966 3.2601 12.316 4.8901 18.474-7.324-15.877-46.641-16.535-58.589 4.8502-14.407-6.2372-42.05 13.308-40.3 41.878 1.9209-9.1807 8.2038-18.119 15.214-23.907-10.954 12.867-14.637 22.583-10.324 32.057 4.5456 7.5507 5.214 16.798-1.63 19.017 10.226-1.6123 8.094-11.464 9.8389-20.104 1.0842-8.2828 2.8953-10.992 5.9181-14.67-8.6041 13.469-4.1222 27.422 1.0867 35.318 4.7141 5.6758 8.4588 9.6553 9.7802 16.3 2.1172-3.8621 2.7805-8.4512 1.7474-13.283 5.954 11.79 18.936 21.884 38.46 20.346-12.872-4.9387-23.805-12.058-25.53-25.236 4.9973 11.545 13.872 19.213 24.201 21.308 7.2522 0.9744 11.354-0.47453 15.456-3.1351-3.4412-1.2678-6.8824-2.5356-10.324-3.8034 27.381 6.9407 29.802-25.861 2.1734-29.341 14.456 2.3317 19.219 5.6327 21.558 17.9 1.5102-5.9181 1.0816-6.9896-0.80088-12.181 6.2394 3.9208 4.7242 13.173 3.6937 19.275 1.9923-4.709 4.7115-6.0254 4.5228-11.704-0.22966-4.107-3.3673-8.4563-9.4129-13.29 6.6477 3.3162 8.691 5.1784 11.219 8.4947-1.7782-16.326-7.9184-20.293-30.779-22.078 13.591-2.8721 32.999 3.222 32.292 20.948-1.1838 15.846-12.061 21.757-21.969 23.063 5.737 1.8673 11.716 4.4616 15.757 9.2369-4.5279-0.18112-9.0558-0.36223-13.584-0.54335 10.808 3.6122 23.555 10.132 30.971 19.56-4.709-1.8112-5.5407-5.561-12.915-5.4335 6.7064 3.0739 8.8084 10.752 14.545 13.584-3.8034 0.18111-7.6068 0.36223-11.41 0.54334 7.6706 7.362 17.765 13.028 20.104 24.994-3.5788 0.34955-4.2497-0.02789 3.8034 11.954-5.816-2.0687 0 5.0712 0 7.6068 13.558 21.992 14.272 48.345 13.532 58.462z" fill="#fff" fill-rule="evenodd" stroke="#000" stroke-width="2.4803"/>
          <path d="m226 119.73c-1.1264 6.2944-2.054 12.191-0.99386 17.094-6.427 0.13251-16.233-2.319-19.281 15.902 2.8491-6.6257 5.3006-9.6736 10.336-12.125 3.5779-1.3914 6.7582-0.99386 9.541 0 0.53006 2.5178 1.0601 5.0356 1.5902 7.5533-11.197 8.1496-11.264 11.926-10.932 26.834 0.46974-0.92458 1.6936 0.44628 1.608-0.58725-0.86729-10.472 3.6322-23.527 10.318-23.464 1.5239 2.8491 3.0478 5.6981 4.5718 8.5472-7.222 3.5116-6.4932 13.384 0.59631 17.094-3.3129-7.0233-3.0478-10.667 1.1926-13.318l5.7644 5.7644c-0.86134 5.1018 0.26503 10.005 3.3791 13.516-1.0601-4.4392-2.1202-8.2822-0.19877-10.336 0.9276-1.7889 3.4454-1.1926 5.1681-1.7889-2.3853-0.72883-5.3668-1.8552-7.7521-4.5718-0.72883-1.1926-0.86135-2.584 0.19877-4.7705 2.1202-2.054 5.6319-3.1141 11.131-3.1803-3.8429-1.3914-7.8846-1.789-12.324 2.1865-1.3914 0.19877-2.584 1.5902-4.1742-0.59632-1.9877-2.9153-3.5779-6.427-5.1681-9.7398-0.53006-4.3067 3.3129-7.222 8.5472-8.3484 5.5656-1.0601 12.92-0.53006 18.486 1.7889-3.3791-3.1804-9.3423-4.1742-15.504-4.5718-5.1018-0.4638-9.2098 2.4515-12.324 4.9693-0.79509-3.1804-1.5902-6.3607-2.3853-9.541 5.1018-4.8368 17.558-8.4809 26.635-8.5472-8.1496-2.6503-17.492-0.13251-26.238 4.5718-0.72883-3.3791 0.53006-6.7582 0.79509-10.137-0.86134-0.06626-1.7227-0.13251-2.584-0.19877z" fill="#2a2625" fill-rule="evenodd"/>
          <path d="m215.47 148.55c-1.9877 0.13251-3.5779 2.6503-4.7705 4.5718" fill="none" stroke="#000" stroke-linecap="round" stroke-width="2.0622"/>
          <path d="m238.92 133.64c2.9816 3.6442 4.9693 3.1141 6.5595 0.79509" fill="none" stroke="#000" stroke-linecap="round" stroke-width="1.7079"/>
          <path d="m214.47 182.74 3.7767 7.5533" fill="none" stroke="#000" stroke-linecap="round" stroke-width="2.0622"/>
          <path d="m244.69 192.28c2.1202 3.4454 4.2405 6.2944 6.957 7.9509" fill="none" stroke="#000" stroke-linecap="round" stroke-width="2.4165"/>
          <path d="m259.99 187.71c1.7227 3.8429 3.6441 5.8969 6.3607 6.7582" fill="none" stroke="#000" stroke-linecap="round" stroke-width="1.7079"/>
          <path d="m268.54 186.31c0.06626 3.5116 1.3251 5.6319 3.1804 6.957" fill="none" stroke="#000" stroke-linecap="round" stroke-width="2.0622"/>
          <path d="m256.42 115.55h3.9754" fill="none" stroke="#000" stroke-linecap="round" stroke-width="1.7079"/>
          <path d="m259.4 127.08c3.2466-0.19877 4.5055 1.1926 4.373 2.3853" fill="none" stroke="#000" stroke-linecap="round" stroke-width="1.7079"/>
          <path d="m257.81 134.24h4.7705" fill="none" stroke="#000" stroke-linecap="round" stroke-width="1.7079"/>
          <path d="m257.61 147.55c2.2528-0.66257 6.4932 1.0601 6.7582-1.9877" fill="none" stroke="#000" stroke-linecap="round" stroke-width="1.7079"/>
          <path d="m320.02 167.03c-4.7844 4.3109-12.61 15.119-8.5472 27.033-4.1995-3.6908-7.4314-8.0728-5.9632-17.293-0.86134 2.3853-0.61679 3.5264-2.4458 5.4969-2.3533-0.14155-2.7714-0.00662-3.7423-3.3276-0.09487-2.9611-0.0515-3.5722 2.2037-4.598 2.9816 1.1926 6.1014 3.3529 7.9771 1.6426-2.3247-1.6941-5.8936-2.697-6.9742-5.7734 1.2565-8.5839 5.8306-12.191 8.746-18.287-4.2977 1.991-7.4895 5.6409-8.746 10.535-1.8429-8.8327-1.4739-18.91 3.1803-29.816-4.9283 3.9444-7.7831 10.792-8.1496 18.883-5.7511-6.4613-8.3228-11.125 0.99386-16.896-2.7452-0.91857-4.108 0.9276-6.1619 1.3914l-7.9509-10.932c-1.9582-2.6994-1.5664-5.537 1.5902-9.3423-2.4572 1.0577-6.8498 1.8389-6.6805 9.2555-3.3963-1.5721-7.622-1.7618-9.2212 2.472 6.0433-0.24456 9.8747-0.07439 12.324 2.584 2.4515 2.7828 4.903 5.5656 7.3546 8.3484-1.3161 3.8282 0.13251 5.1681 0.19877 7.7521-7.7373 0.66167-16.166-2.8238-19.48-7.5533-0.30329 9.0959 15.014 8.1006 22.037 10.976 7.9696 5.4765 9.442 15.1 7.0437 20.3-2.3943-11.859-6.3092-7.5969-11.192-14.778 3.3701 6.2363 7.8461 7.9108 5.9632 13.318 1.7227 5.3006 0.40416 5.4864 5.1681 15.902 4.2405 4.7705 8.4809 9.541 12.721 14.312-5.1166-3.8249-12.307-3.2261-19.082-3.1804 23.052 4.6512 25.367 9.8554 35.978 32.201-9.4838-8.7484-19.935-15.976-32.599-21.269 12.966 8.8818 27.038 18.731 35.58 31.207-8.3803-6.4784-15.931-13.372-27.629-15.703 25.173 13.341 31.269 16.591 35.706 45l-34.895-26.842c1.6524 1.4376-1.4458 0.10104 0.17069 1.4421 28.729 23.834 36.992 27.415 39.086 45.196-8.6709-9.4815-16.236-15.231-26.842-21.809 10.06 9.269 27.169 20.75 28.52 31.54-8.1645-6.2632-16.191-13.909-24.493-18.789 8.5 9.0592 26.953 18.671 25.5 27.178-6.2381-6.1401-8.0526-5.3684-12.079-8.0526 11.365 9.4288 13.607 10.149 15.434 22.48-4.8092-3.579-8.5125-7.5726-14.428-10.737 5.2704 5.9478 11.785 7.6102 12.079 15.77-2.3487-0.89474-4.6974-1.7895-7.0461-2.6842 1.5658 1.6776 3.1316 3.3553 4.6974 5.0329 2.4605 3.2434 4.921 6.4868 7.3816 9.7303 0.44737 5.8158 0.89474 11.632 1.3421 17.447l3.0197-1.3421c-0.22368-5.3684-0.44737-10.737-0.67105-16.105-0.7829-6.8224-1.5658-13.645-2.3487-20.467 0.55921-4.1382 1.1184-8.2763 1.6776-12.414-1.1184 0.89474-2.2368 1.7895-3.3553 2.6842-0.68492-5.4865-0.12571-10.42 1.6776-18.118-1.2303 2.125-2.4605 4.25-3.6908 6.375-2.0346-8.6722 1.322-13.336 3.0197-19.796-2.0132 3.2434-4.0263 6.4868-6.0395 9.7303 1.2303-9.954-3.4837-23.364 3.6908-29.862-4.9488 2.3084-4.9211 7.3816-7.3816 11.072 0.20222-7.0988 3.7221-15.442 9.7303-20.467-3.8026 4.1382-7.6053 8.2763-11.408 12.414 1.9993-6.2041 5.2427-12.685 9.7303-17.783-3.3289 1.5971-8.1783 6.0972-10.401 13.086-6.5638-9.5795 1.249-18.33 4.3618-25.836-3.9874 1.5179-6.0395 9.3948-9.0592 14.092-7.6232-13.803-5.8462-15.441 2.0132-38.921-5.0669 5.0052-6.2632 14.987-9.3947 22.48-8.1435-12.835-2.8779-25.671 3.3553-38.921-6.0408 6.6967-8.9022 15.329-11.072 23.822-5.2995-10.401-2.1666-19.42 2.3487-31.204-3.8492 4.4786-6.1777 12.137-9.0592 22.145-3.2958-10.175-1.2004-21.594 4.6274-33.427z" fill="#282421" fill-rule="evenodd"/>
          <path d="m272.16 148.96c0.35398 3.287 10.265 1.4159 11.074 5.7648" fill="none" stroke="#000" stroke-linecap="round" stroke-width="2.0622"/>
          <path d="m260.02 109.06c8.5461 2.1239 15.878 2.2756 16.536 10.923 0.35398-0.25284 0.70796-0.50569 1.0619-0.75853 0.65739-8.3944-4.2983-11.631-16.232-10.619-0.45511 0.15171-0.91023 0.30341-1.3653 0.45512z" fill="#2a2625" fill-rule="evenodd" stroke="#000" stroke-width="1px"/>
        </g>
      </g>
      <g transform="translate(-727.99)" stroke="#000">
        <path d="m372.66 41.711c-10.804-6.4798-25.012-8.7047-37.034-1.6003-7.7289-1.0149-17.019 5.5633-23.597 15.419-3.9035 7.1824-7.3969 9.0172-13.408 8.9391 3.5131 3.5912 7.0263 3.9035 11.242 0.70263 4.1793-4.4114 15.477-12.626 22.484-14.989-7.7672 4.3722-15.339 9.9145-20.376 14.287-5.7772 6.714-8.0412 12.96-3.9816 24.358 3.6693 6.7921 3.1228 12.647-0.93684 15.458 5.3868-0.15614 8.6657-2.6544 9.1342-10.305 1.4052-7.807 4.2158-13.038 7.7289-18.503-9.6026 12.803-3.0447 33.336 11.242 41.923 5.7772 9.5245 11.554 19.049 17.331 28.574-10.071-9.6026-19.439-27.168-30.213-28.808 8.2754 5.621 12.569 12.179 16.395 20.376 0.93684 11.086 8.4315 15.146 12.647 22.718-5.4649-3.7474-7.6508-10.774-16.395-11.242 10.227 7.5728 8.7438 20.532 20.142 31.15-4.528-4.6842-7.6508-8.9-13.584-10.539 6.1675 7.807 7.1824 15.146 10.774 22.718-5.2307-6.6359-8.5877-11.164-16.395-10.774 12.803 6.9482 9.6806 15.77 14.521 23.655-2.0298-0.7807-4.0596-1.5614-6.0894-2.3421 9.8368 8.4315 7.9631 27.637 11.945 41.455-1.7956-1.2491-3.5912-2.4982-5.3868-3.7473 4.1377 8.0412 3.5912 15.614 5.3868 23.421-2.1079-1.5614-4.2158-3.1228-6.3236-4.6842 5.1526 7.9631 7.4947 15.692 9.1342 23.889-1.2491-0.85877-2.4982-1.7175-3.7473-2.5763 4.1377 7.4947 5.6991 19.908 6.0894 30.213-0.55673-0.64982-1.1135-1.2996-1.6702-1.9494 1.3719 14.712 2.7439 29.425 4.1158 44.137h9.2408 9.2408c1.3719-14.712 2.7439-29.425 4.1158-44.137-0.55673 0.64982-1.1135 1.2996-1.6702 1.9494 0.39035-10.305 1.9517-22.718 6.0894-30.213-1.2491 0.85877-2.4982 1.7175-3.7473 2.5763 1.6395-8.1973 3.9816-15.926 9.1342-23.889-2.1079 1.5614-4.2158 3.1228-6.3236 4.6842 1.7956-7.807 1.2491-15.38 5.3868-23.421-1.7956 1.2491-3.5912 2.4982-5.3868 3.7473 3.9816-13.818 2.1079-33.023 11.945-41.455-2.0298 0.7807-4.0596 1.5614-6.0894 2.3421 4.8403-7.885 1.7175-16.707 14.521-23.655-7.807-0.39035-11.164 4.1377-16.395 10.774 3.5912-7.5728 4.6061-14.911 10.774-22.718-5.9333 1.6395-9.0561 5.8552-13.584 10.539 11.398-10.617 9.9148-23.577 20.142-31.15-8.7438 0.46842-10.93 7.4947-16.395 11.242 4.2158-7.5728 11.71-11.632 12.647-22.718 3.8254-8.1973 8.1192-14.755 16.395-20.376-10.774 1.6395-20.142 19.205-30.213 28.808 5.7772-9.5245 11.554-19.049 17.331-28.574 14.287-8.5877 20.845-29.12 11.242-41.923 3.5131 5.4649 6.3236 10.696 7.7289 18.503 0.46842 7.6508 3.7473 10.149 9.1342 10.305-4.0596-2.8105-4.6061-8.6657-0.93684-15.458 4.0596-11.398 1.7956-17.644-3.9816-24.358-9.3606-7.3308-13.242-9.867-20.376-14.287 2.7-0.14069 13.106 6.5682 22.484 14.989 4.2158 3.2009 7.7289 2.8886 11.242-0.70263-6.0114 0.07807-8.5296-1.9517-13.116-9.0366-6.5779-9.4653-16.16-16.336-23.889-15.321-12.023-7.1043-28.418-4.8795-37.864 1.6003z" fill="#fff" fill-rule="evenodd" stroke-width="2.4803"/>
        <path d="m318.46 69.912c-5.2849 3.6448-4.8293 8.6563-2.7336 11.754" fill="none" stroke-linecap="round" stroke-width="2.126"/>
        <path d="m322.59 69.549c0.33899 4.8815-4.6103 4.0679-3.8645 8.5427" fill="none" stroke-linecap="round" stroke-width="1.4173"/>
        <path d="m334.38 58.972-4.0679 3.4577" fill="none" stroke-linecap="round" stroke-width="1.4173"/>
        <path d="m337.64 64.667c-1.8306 5.4239-6.7121 5.3561-7.9325 9.5596" fill="none" stroke-linecap="round" stroke-width="1.7717"/>
        <path d="m329.1 90.295c-3.4578 2.1696-1.8306 9.0173 1.2204 8.3393" fill="none" stroke-linecap="round" stroke-width="1.4173"/>
        <path d="m344.15 90.092c-2.9154 1.356-4.6103 4.3391-3.8645 7.1189" fill="none" stroke-width="1.4173"/>
        <path d="m358.39 96.601c-0.2712 5.0849-2.9832 2.8476-3.2544 7.3223" fill="none" stroke-linecap="round" stroke-width="1px"/>
        <path d="m365.3 38.429c1.2204 1.356 4.872 3.3004 4.8815 4.4747h-8.1359c7.6401 1.3317 8.8022 2.2397 7.1189 5.0849-5.5738-0.47708-14.659-8.4613-22.17 0.2034 4.8473-1.5768 21.319-2.306 22.17 6.7121-27.62-3.691-30.539 7.0876-36.001 8.5427 1.8284-0.56726 0.41916 0.92518 2.9412 0.12694 10.407-8.3904 33.56-11.117 32.45-2.7711-18.043 0.83745-24.764 5.7917-28.882 11.594 7.9008-5.2112 31.119-16.174 30.301-5.2203-2.5086 1.0848-8.7707 0.29277-8.1311 1.5592-0.46774 0.75782 10.204-2.6012 8.9495 4.2713-10.797-3.7928-20.565 1.3747-25.672 11.083 8.7848-8.6961 24.048-15.636 25.265-4.7774-6.8576 1.7333-14.926 7.6441-12.702 15.008 1.606-7.8045 7.9342-11.795 15.292-13.787 10.189 2.1209 15.05 7.5715 15.31 13.628 5.0449-0.77919-1.1711-13.425-13.017-15.051 0.20081-1.7576-0.05351-2.2569 0.816-4.3799 7.7208-3.0549 20.818 2.4412 25.422 9.6682-4.0924-9.4407-12.841-15.094-25.831-11.797-2.5432-5.5116 6.7799-2.3052 10.17-3.4577-0.35499-1.4447-7.8995-1.228-12.175-1.4032-0.74204-0.52185-0.27671-2.2705-0.23248-3.275 15.681-1.5793 20.405-1.0396 33.604 7.7338-6.9963-7.824-16.777-12.803-34.913-9.608 9.1248-12.164 29.752-5.8025 38.938 1.4673-7.8713-11.297-26.156-14.421-39.052-6.1019 0.43234-9.5822 22.66-14.139 29.086-8.9495-2.561-6.7056-15.233-4.5722-27.662 0.40679-0.76815-2.3439 8.2715-4.2035 12.407-6.3053-6.5297-1.2351-8.2766 1.7677-13.051 1.8646-0.22651-1.6635 4.693-4.7799 6.9487-6.7461-8.0681 5.0849-6.5765 5.0849-14.441 0.2034z" fill="#1e1a17" fill-rule="evenodd" stroke-linejoin="round" stroke-width=".125"/>
        <path d="m427.67 69.912c5.2849 3.6448 4.8293 8.6563 2.7336 11.754" fill="none" stroke-linecap="round" stroke-width="2.126"/>
        <path d="m423.55 69.549c-0.33899 4.8815 4.6103 4.0679 3.8645 8.5427" fill="none" stroke-linecap="round" stroke-width="1.4173"/>
        <path d="m411.75 58.972 4.0679 3.4577" fill="none" stroke-linecap="round" stroke-width="1.4173"/>
        <path d="m408.49 64.667c1.8306 5.4239 6.7121 5.3561 7.9325 9.5596" fill="none" stroke-linecap="round" stroke-width="1.7717"/>
        <path d="m417.04 90.295c3.4578 2.1696 1.8306 9.0173-1.2204 8.3393" fill="none" stroke-linecap="round" stroke-width="1.4173"/>
        <path d="m401.99 90.092c2.9154 1.356 4.6103 4.3391 3.8645 7.1189" fill="none" stroke-width="1.4173"/>
        <path d="m373.02 123.18c-9.569 1.2557-24.008 0.40122-29.888-2.1751-13.695-4.1357-10.102-34.51-7.1189-36.001-0.54239 10.848-0.67799 20.679 3.2544 30.103 2.5086 3.4149 5.6273 3.9674 10.17 5.0849-5.0171-4.6781-5.1527-14.848-6.1019-22.984 3.1188-0.67799 2.373 23.255 11.797 23.594-3.6611-2.1696-6.1019-20.611-3.051-26.645-0.20339 2.373-0.81359 29.154 10.577 26.238-4.3391-5.2205-6.8477-7.7969-4.0679-13.424 1.017 6.7799 3.4578 11.526 9.5596 10.983-8.8139-7.6613-6.2375-15.119-0.61019-25.221 2.1696 2.034-8.4792 20.45 5.4615 25.098 15.556-4.7831 3.4265-23.064 5.5961-25.098 5.6273 10.102 8.2037 17.56-0.61019 25.221 6.1019 0.54239 8.5427-4.2035 9.5596-10.983 2.7798 5.6273 0.27119 8.2037-4.0679 13.424 11.39 2.9154 10.78-23.865 10.577-26.238 3.051 6.0341 0.61019 24.475-3.051 26.645 9.424-0.339 8.6783-24.272 11.797-23.594-0.94918 8.1359-1.0848 18.306-6.1019 22.984 4.5425-1.1175 7.6613-1.67 10.17-5.0849 3.9323-9.424 3.7967-19.255 3.2544-30.103 2.9832 1.4916 6.5765 31.866-7.1189 36.001-5.8802 2.5764-20.6 3.4308-29.985 2.1751z" fill="#231d1d" fill-rule="evenodd" stroke-linecap="round" stroke-width=".125"/>
        <path d="m387.75 96.601c0.2712 5.0849 2.9832 2.8476 3.2544 7.3223" fill="none" stroke-linecap="round" stroke-width="1px"/>
        <path d="m372.62 123.49h-2.3665c1.2464 4.7315 1.1033 9.6946 0.26532 14.194-3.3502-4.4407-6.4688-7.7235-10.745-9.1535-0.84017 0-2.9335-0.66833-2.6041 0.50125 6.2434 2.3598 14.54 11.497 13.084 19.928-1.6384-3.2048-4.3057-5.2781-8.0284-7.5565-0.70751 0.13266-2.5011-0.82072-1.2871 0.89923 5.3019 4.7172 11.724 11.97 9.8461 22.709-8.1911-9.2428-8.5029-10.564-13.797-13.443 6.7262 6.8552 16.786 18.297 14.062 35.464-3.662-6.2117-8.9715-10.662-13.791-16.41-0.09359-1.3009 6.3597 1.5067 5.8567 3.9155-1.1055 0.08844-3.297 1.2629-4.4025 1.3514 6.4726 5.5004 14.566 15.401 12.47 24.144-2.1714 0.17283-3.6744-10.348-11.276-13.266 2.3732 2.0044 4.2451 6.0139 6.3676 9.0208-1.5035-0.48642-3.0069-0.97283-4.5104-1.4592 6.1029 5.0016 10.869 9.1677 9.2861 17.511-4.4222-1.6556-4.5003-12.083-8.7555-8.2248 7.7983 10.461 9.2475 11.481 8.3575 25.868-1.3723 0.81405-3.6295-6.0512-10.556-11.746-4.8305-5.2873-7.516-13.748-9.608-12 5.9007 18.519 20.824 16.153 20.96 39.267-3.0265-0.68231-4.6328-11.974-10.082-12.072 2.1816 2.4026 3.7784 4.8051 5.041 7.9595-0.84017-0.35376-1.6804-0.70751-2.5205-1.0613 4.8057 10.475 7.4393 15.771 6.8983 28.92-3.4934-3.7144-5.2323-11.021-10.48-11.143 5.8423 8.1904 11.852 15.629 11.011 25.073-2.0341-2.1225-3.3999-5.3311-6.1023-6.3676 7.3514 9.1143 8.1865 23.241 2.0877 27.426 1.1939 0.04422 4.8106-2.0001 5.5958-1.9559 0.78527-0.04422 4.4019 2.0001 5.5958 1.9559-6.0988-4.1853-5.2637-18.312 2.0877-27.426-2.7024 1.0365-4.0682 4.2451-6.1023 6.3676-0.84102-9.4435 5.1684-16.882 11.011-25.073-5.2477 0.12216-6.9867 7.4289-10.48 11.143-0.541-13.149 2.0926-18.444 6.8983-28.92-0.84017 0.35376-1.6804 0.70751-2.5205 1.0613 1.2626-3.1544 2.8594-5.557 5.041-7.9595-5.4492 0.09752-7.0556 11.39-10.082 12.072 0.13628-23.114 15.059-20.748 20.96-39.267-2.092-1.7475-4.7775 6.7131-9.608 12-6.9266 5.6943-9.1838 12.56-10.556 11.746-0.88999-14.387 0.55917-15.408 8.3575-25.868-4.2552-3.8582-4.3332 6.5693-8.7555 8.2248-1.583-8.3432 3.1832-12.509 9.2861-17.511-1.5035 0.48642-3.0069 0.97283-4.5104 1.4592 2.1225-3.0069 3.9945-7.0164 6.3676-9.0208-7.6016 2.9182-9.1046 13.439-11.276 13.266-2.0964-8.7428 5.9973-18.643 12.47-24.144-1.1055-0.08844-3.297-1.2629-4.4025-1.3514-0.50295-2.4088 5.9503-5.2164 5.8567-3.9155-4.8199 5.7486-10.13 10.198-13.791 16.41-2.7238-17.167 7.3357-28.609 14.062-35.464-5.2936 2.8787-5.6054 4.1999-13.797 13.443-1.8776-10.739 4.5442-17.992 9.8461-22.709 1.214-1.72-0.57961-0.76657-1.2871-0.89923-3.7227 2.2784-6.39 4.3517-8.0284 7.5565-1.4564-8.431 6.8407-17.568 13.084-19.928 0.32942-1.1696-1.7639-0.50125-2.6041-0.50125-4.2766 1.43-7.3952 4.7127-10.745 9.1535-0.83794-4.4999-0.9811-9.463 0.26532-14.194h-2.9185z" fill="#231d1d" fill-rule="evenodd" stroke-width=".25"/>
        <path d="m331.9 115.34c15.924 4.0044 19.556 14.434 24.305 20.394" fill="none" stroke-width="1.25"/>
        <path d="m413.75 115.34c-15.924 4.0044-19.556 14.434-24.305 20.394" fill="none" stroke-width="1.25"/>
      </g>
      <path d="m-93.476 490.24c-8.4576 10.533-15.88 12.525-25.373 16.07 20.108-16.938 29.347-37.759 16.07-51.592-38.544-22.645-59.489 18.376-37.214 23.681-6.7565-7.7088-0.31406-16.971 8.1988-15.88 15.574 4.363 6.0449 24.772 1.9503 26.029-28.969 23.624-95.982-30.392-131.94-54.129-9.3034-6.2023-18.607-12.405-27.91-18.607-5.1394 19.48-12.349 36.631-27.064 49.9-1.1271 23.893 22.85 30.706 41.133 24.319 8.4531-2.1443 36.058-18.523 36.488 4.6957-0.24978 14.521-8.0049 29.301-17.572 38.646l91.342 35.522c12.368 12.437 38.452 21.25 64.278 19.453-17.179-0.24527-31.51-13.948-41.442-27.91 16.933-0.85535 21.444-15.168 13.532-31.293 1.89 12.792-4.5017 13.939-16.07 13.532-35.231-4.3771-57.003-17.812-76.964-46.517-7.0616-7.4314-2.9946-17.451 6.7661-6.7661 31.862 34.689 56.994 45.827 88.079 29.532 12.358-7.233 22.905-16.019 33.71-28.687z" fill="#fff500" fill-rule="evenodd" stroke="#000" stroke-width="3.5433"/>
      <path d="m-618.04 490.24c8.4576 10.533 15.88 12.525 25.373 16.07-20.108-16.938-29.347-37.759-16.07-51.592 38.544-22.645 59.489 18.376 37.214 23.681 6.7565-7.7088 0.31406-16.971-8.1988-15.88-15.574 4.363-6.0449 24.772-1.9503 26.029 28.969 23.624 95.982-30.392 131.94-54.129 9.3034-6.2023 18.607-12.405 27.91-18.607 5.1394 19.48 12.349 36.631 27.064 49.9 1.1271 23.893-22.85 30.706-41.133 24.319-8.4531-2.1443-36.058-18.523-36.488 4.6957 0.24978 14.521 8.0049 29.301 17.572 38.646l-91.342 35.522c-12.368 12.437-38.452 21.25-64.278 19.453 17.179-0.24527 31.51-13.948 41.442-27.91-16.933-0.85535-21.444-15.168-13.532-31.293-1.89 12.792 4.5017 13.939 16.07 13.532 35.231-4.3771 57.003-17.812 76.964-46.517 7.0616-7.4314 2.9946-17.451-6.7661-6.7661-31.862 34.689-56.994 45.827-88.079 29.532-12.358-7.233-22.905-16.019-33.71-28.687z" fill="#fff500" fill-rule="evenodd" stroke="#000" stroke-width="3.5433"/>
      <path d="m-544.56 529.4v245.61h0.0625c2.4493 94.978 88.187 175.33 191.02 175.33 102.83 0 187.21-81.015 189.66-175.99l0.28973-244.95h-381.03z" fill="#da251e" fill-rule="evenodd" stroke="#000" stroke-linecap="round" stroke-width="3.5433"/>
      <g transform="translate(-727.99)" fill-rule="evenodd" stroke="#000" stroke-width="3.5433">
        <path d="m135.99 272.33c-13.027-4.0246-21.788-3.7831-34.179 5.2192-17.217 16.327-0.66509 28.248 10.985 13.845-5.1896 25.736-19.593 27.325-29.867 20.017 4.6601 25.418-18.958 42.894-32.726 42.894 7.3078-3.8128 10.803-11.121 9.5319-24.783-1.8005-13.133 1.8005-18.64 6.0369-25.101-13.345 14.298-34.315-0.63546-20.97-18.111-0.10591 11.544 5.8251 12.921 11.121 7.9433 2.5418-4.3423 5.0837-8.6846 7.6255-13.027 6.1428-15.357 22.453-22.771 29.867-13.662-12.18 10.803-18.64 17.793-22.241 37.175 5.4014-20.441 9.5319-26.584 23.512-37.81 11.756-6.5664 28.914-5.5074 41.305 5.4014z" fill="#fff500"/>
        <path d="m204.61 513.3c-18.689 17.548-53.215 15.907-82.662 3.8726-19.52-9.9444-34.442-22.271-51.063-44.43-1.0535-1.4046-2.1112-0.98677-0.8708 0.76402 13.855 19.145 39.973 44.494 67.39 49.788-10.685 6.0377-28.295 5.8716-44.03-4.3938-11-7.2094-31.955-13.986-36.318 0.30166-0.1093 7.17 6.1295 8.2805 10.493 8.5254-13.584 6.6629-29.791 3.62-26.612-21.208 2.3827-9.3167 9.9987-23.604 30.547-13.549-48.31-21.204-40.668-101.43 8.0796-136.41 25.576-22.953 45.919-44.866 38.036-70.826-3.5104-5.9284-7.492-11.364-21.146-1.5838 2.4046-10.93 32.117-25.46 45.201-4.9742 15.302 29.948 5.0278 57.273-19.018 80.007-28.855 23.172-48.529 39.785-43.283 61.645-3.4976-34.32 36.287-43.064 46.562-34.757 19.674 14.428 10.493 47.873-13.772 55.743 11.367-17.051 4.3816-28.987-10.483-23.741-40.119 25.382 42.115 143.04 101.31 95.221 3.4719-2.8043 3.3679-1.6856 1.6365 0.00163z" fill="#da251e"/>
      </g>
      <g transform="matrix(-1 0 0 1 15.799 0)" fill-rule="evenodd" stroke="#000" stroke-width="3.5433">
        <path d="m140.34 277.78c-13.027-4.0246-27.232-10.316-39.623-1.3132-15.039 19.593 0.42364 29.337 12.074 14.933-5.1896 25.736-19.593 27.325-29.867 20.017 4.6601 25.418-18.958 42.894-32.726 42.894 7.3078-3.8128 10.803-11.121 9.5319-24.783-1.8005-13.133 1.8005-18.64 6.0369-25.101-13.345 14.298-34.315-0.63546-20.97-18.111-0.10591 11.544 5.8251 12.921 11.121 7.9433 2.5418-4.3423 5.0837-8.6846 7.6255-13.027 6.1428-15.357 22.453-22.771 29.867-13.662-12.18 10.803-18.64 17.793-22.241 37.175 5.4014-20.441 9.5319-26.584 23.512-37.81 11.756-6.5664 33.813-7.1404 45.66 10.845z" fill="#fff500"/>
        <path d="m204.61 513.3c-18.689 17.548-53.215 15.907-82.662 3.8726-19.52-9.9444-34.442-22.271-51.063-44.43-1.0535-1.4046-2.1112-0.98677-0.8708 0.76402 13.855 19.145 39.973 44.494 67.39 49.788-10.685 6.0377-28.295 5.8716-44.03-4.3938-11-7.2094-31.955-13.986-36.318 0.30166-0.1093 7.17 6.1295 8.2805 10.493 8.5254-13.584 6.6629-29.791 3.62-26.612-21.208 2.3827-9.3167 9.9987-23.604 30.547-13.549-48.31-21.204-42.845-101.43 5.9022-136.41 25.576-22.953 49.185-44.594 38.036-70.826-4.8713-9.4668-13.48-9.7304-19.513-1.5838 2.4046-10.93 27.218-25.46 45.745-4.9742 15.302 29.948 5.0278 57.273-19.018 80.007-28.855 23.172-48.529 39.785-43.283 61.645-3.4976-34.32 36.287-43.064 46.562-34.757 19.674 14.428 10.493 47.873-13.772 55.743 11.367-17.051 4.3816-28.987-10.483-23.741-40.119 25.382 42.115 143.04 101.31 95.221 3.4719-2.8043 3.3679-1.6856 1.6365 0.00163z" fill="#da251e"/>
      </g>
      <g transform="translate(-727.99)">
        <g transform="translate(-.74833 2.0111)" stroke="#000">
          <path d="m268.84 478.51c15.627 2.2127 28.765 18.117 51.86 7.4679 9.404-4.0105 13-12.17 12.032-24.478-14.936-12.308-21.574-30.01-27.382-49.371 15.212-9.2657 30.425-18.531 45.637-27.797 15.627 0.41488 31.255 0.82977 46.882 1.2446 13.829 8.9892 27.659 17.978 41.488 26.967-7.8828 25.723-15.351 39.414-28.627 51.031 1.383 11.617 5.2552 20.744 16.595 23.648 23.787 8.7126 42.595-13.276 52.69-8.7126-10.51-0.41489-21.021 9.1274-41.488 38.584-8.1594 13.415-22.127 37.616-39.414 26.553-8.7146 7.1913-17.429 14.383-26.144 21.574-8.8489-7.4679-17.698-14.936-26.547-22.404-14.659 8.8508-25.17-4.2871-38.999-24.478-9.5423-11.755-18.255-33.052-38.584-39.829z" fill="url(#c)" fill-rule="evenodd" stroke-width="1.4173"/>
          <path d="m305.52 528.1c-7.3993-9.7262-11.247-17.346-19.021-28.229-3.3097-4.2704-8.3234-8.0879-13.596-11.517-10.593-5.1051-15.534-2.1535-16.367 1.3538-0.23899 7.5204 0.924 13.979 2.6478 18.976 3.4706 7.5204 7.0407 13.859 11.913 19.416h34.423z" fill="url(#f)" fill-rule="evenodd" stroke-width="2.4803"/>
          <path d="m438.56 528.1c7.3993-9.7262 11.247-17.346 19.021-28.229 3.3097-4.2704 8.3234-8.0879 13.596-11.517 10.593-5.1051 15.534-2.1535 16.367 1.3538 0.23899 7.5204-0.924 13.979-2.6478 18.976-3.4706 7.5204-7.0407 13.859-11.913 19.416h-34.423z" fill="url(#e)" fill-rule="evenodd" stroke-width="2.4803"/>
          <path d="m373.1 562.15c-6.7616-0.72921-14.066-11.312-18.762-20.409-4.2552-9.1707-13.117-1.1738-8.128 2.421-3.6838 2.1298-5.3623 2.6967-12.105 2.201-7.7034-1.7608-18.708-13.646-27.732-29.053-8.0702-11.738-20.322-32.941-34.775-37.196-7.6176-1.8916-14.306 0.29346-14.526 9.0239 5.864-11.074 24.882 1.2567 34.747 16.675 0.95412 1.3681 16.917 25.452 17.97 26.925 6.276 9.7613 12.172 14.436 16.549 16.549 5.514 3.3458 10.808 3.2274 15.441 2.4277 4.1901-0.88369 5.0788-1.9875 8.3885-3.7516 3.1488 6.4355 6.6622 12.296 9.811 14.526 3.2914 3.25 7.9397 3.5292 12.93 9.3028 4.9901-5.7735 10.025-5.9239 13.317-9.1738 3.1488-2.2296 6.2754-8.219 9.4242-14.654 3.3097 1.7641 4.1984 2.8679 8.3885 3.7516 4.6336 0.79977 9.9275 0.91817 15.441-2.4277 4.3765-2.1123 10.273-6.7873 16.549-16.549 1.0524-1.4734 17.016-25.557 17.97-26.925 11.142-14.142 23.385-26.964 34.747-16.675-0.2201-8.7305-8.5143-10.135-14.526-9.0239-14.453 4.2552-26.705 25.458-34.775 37.196-9.0239 15.407-20.029 27.292-27.732 29.053-5.2634 1.1066-7.942 0.49096-12.105-2.201 4.9888-3.5949-4.2596-11.721-8.5148-2.55-4.4375 10.129-11.613 19.938-17.991 20.538z" fill="url(#d)" stroke-width="2.0622"/>
        </g>
        <g transform="translate(-.11243)">
          <rect x="328.59" y="478.47" width="3.4231" height="3.5072" fill="#fbde00" stroke="#000" stroke-linecap="round" stroke-linejoin="round" stroke-width=".70866"/>
        </g>
        <g stroke="#000">
          <path d="m365.7 509.98c4.8138 1.5559 9.5166 1.6123 14.775 0.00272-4.1658 2.3124-6.3879 4.958-7.4993 8.7698-1.2034-3.7572-3.1843-5.8483-7.2755-8.7725z" fill="#fbde00" fill-rule="evenodd" stroke-width="1px"/>
          <g stroke-linecap="round" stroke-linejoin="round" stroke-width="1.7717">
            <path d="m384.67 527.94a12.079 11.893 0 1 1-24.158 0 12.079 11.893 0 1 1 24.158 0z" fill="#fbde00"/>
            <path transform="matrix(.68466 0 0 .68466 117.49 166.48)" d="m384.67 527.94a12.079 11.893 0 1 1-24.158 0 12.079 11.893 0 1 1 24.158 0z" fill="none"/>
          </g>
          <g fill="#fbde00" stroke-linecap="round" stroke-linejoin="round">
            <rect transform="translate(-.11243)" x="356.27" y="504.58" width="5.5153" height="5.5153" stroke-width=".70866"/>
            <rect transform="translate(-.11243)" x="351.49" y="501.71" width="5.5153" height="5.5153" stroke-width=".70866"/>
            <rect transform="translate(-.11243)" x="347.2" y="498.43" width="5.2164" height="5.2164" stroke-width=".70866"/>
            <rect transform="translate(-.11243)" x="343.24" y="494.75" width="4.9175" height="4.8179" stroke-width=".70866"/>
            <rect transform="translate(-.11243)" x="339.48" y="490.93" width="4.9175" height="4.8179" stroke-width=".70866"/>
            <rect transform="translate(-.11243)" x="336.28" y="487.63" width="4.1195" height="4.2208" stroke-width=".70866"/>
            <rect transform="translate(-.11243)" x="333.56" y="484.35" width="3.8211" height="3.915" stroke-width=".70866"/>
            <rect transform="translate(-.11243)" x="330.74" y="481.3" width="3.7216" height="3.813" stroke-width=".70866"/>
            <path transform="translate(-2.2487 -.89947)" d="m371.03 511.61a3.9352 3.7665 0 1 1-7.8703 0 3.9352 3.7665 0 1 1 7.8703 0z" stroke-width="1.063"/>
          </g>
          <g transform="matrix(-1 0 0 1 745.69 0)" fill="#fbde00" stroke-linecap="round" stroke-linejoin="round">
            <rect transform="translate(-.11243)" x="356.27" y="504.58" width="5.5153" height="5.5153" stroke-width=".70866"/>
            <rect transform="translate(-.11243)" x="351.49" y="501.71" width="5.5153" height="5.5153" stroke-width=".70866"/>
            <rect transform="translate(-.11243)" x="347.2" y="498.43" width="5.2164" height="5.2164" stroke-width=".70866"/>
            <rect transform="translate(-.11243)" x="343.24" y="494.75" width="4.9175" height="4.8179" stroke-width=".70866"/>
            <rect transform="translate(-.11243)" x="339.48" y="490.93" width="4.9175" height="4.8179" stroke-width=".70866"/>
            <rect transform="translate(-.11243)" x="336.28" y="487.63" width="4.1195" height="4.2208" stroke-width=".70866"/>
            <rect transform="translate(-.11243)" x="333.56" y="484.35" width="3.8211" height="3.915" stroke-width=".70866"/>
            <rect transform="translate(-.11243)" x="330.74" y="481.3" width="3.7216" height="3.813" stroke-width=".70866"/>
            <path transform="translate(-2.2487 -.89947)" d="m371.03 511.61a3.9352 3.7665 0 1 1-7.8703 0 3.9352 3.7665 0 1 1 7.8703 0z" stroke-width="1.063"/>
          </g>
        </g>
        <g transform="translate(85.338)">
          <rect x="328.59" y="478.47" width="3.4231" height="3.5072" fill="#fbde00" stroke="#000" stroke-linecap="round" stroke-linejoin="round" stroke-width=".70866"/>
        </g>
      </g>
      <g transform="translate(-727.99)" fill-rule="evenodd" stroke="#000">
        <path transform="matrix(1.0816 0 0 1.0816 -23.226 -28.442)" d="m293.04 350.35a5.7351 5.7351 0 1 1-11.47 0 5.7351 5.7351 0 1 1 11.47 0z" fill="#0098e4" stroke-linecap="round" stroke-linejoin="round" stroke-width="1.9657"/>
        <path transform="matrix(1.0816 0 0 1.0816 148.26 -28.442)" d="m293.04 350.35a5.7351 5.7351 0 1 1-11.47 0 5.7351 5.7351 0 1 1 11.47 0z" fill="#0098e4" stroke-linecap="round" stroke-linejoin="round" stroke-width="1.9657"/>
        <path d="m315.64 361.81c7.7549-2.3863 13.008-6.8023 13.077-18.931-0.80076-2.0671-5.2479-4.0629-8.0291-4.4384-4.6167 1.5545-6.4954 5.9991-7.0052 10.596-0.56442 5.7789-0.06405 8.2114 1.9574 12.773z" fill="#f8f9f4" stroke-width="1.4173"/>
        <path transform="matrix(.69349 0 0 .69349 248.5 124.63)" d="m293.04 350.35a5.7351 5.7351 0 1 1-11.47 0 5.7351 5.7351 0 1 1 11.47 0z" fill="#00942d" stroke-linecap="round" stroke-linejoin="round" stroke-width="1.9827"/>
        <path transform="matrix(.69349 0 0 .69349 99.131 124.63)" d="m293.04 350.35a5.7351 5.7351 0 1 1-11.47 0 5.7351 5.7351 0 1 1 11.47 0z" fill="#00942d" stroke-linecap="round" stroke-linejoin="round" stroke-width="1.9827"/>
        <path d="m373.23 296.97c-1.9606 3.4477-5.1037 5.6312-7.5367 7.9344-1.9579 1.8925-3.4944 6.7244 1.2015 9.0071-1.6109 0.14753-2.3895 0.60721-2.3356 2.6276-0.84343-1.5571-1.895-2.0737-2.5303-4.6713-2.0572-2.2352-3.49-1.349-5.5472-2.3356 0.81099 2.2059 0.16531 4.6199 2.433 6.6176 1.6881 0.3948 2.7518 1.3098 3.5035 2.433-2.3681 0.42171-3.0818 1.4273-3.0169 3.3088-0.35683-1.1354-1.0056-2.7574-1.7517-3.6981-2.0761-1.4598-5.8067-0.77854-7.3962 1.3625-1.3949 2.7898-3.2764 6.3581-5.4498 8.564 2.8547 2.3681 3.8903 4.8837 5.6745 7.2518 1.5571 2.0112 5.5171 2.0963 7.3662 0.99338 0.97318-1.9139 2.2383-4.4822 3.2115-6.3961 0.1622 2.0112 0.62982 2.3546 2.8357 2.1276-1.065 1.5528-2.1802 2.8773-2.829 3.4936-1.8166 1.0705-2.1734 3.0438-1.6544 5.866 3.5107-0.55629 4.0549-1.8613 4.443-4.0941 0.4652-1.7542 1.6489-5.6089 2.5572-4.6682 0.29401 1.979 0.39339 1.8169 1.7579 1.4603 0.07567 5.0586-3.1254 10.875-6.6534 14.337-7.1541 5.5709-16.642 5.2459-22.936-3.3088-2.5152-3.7981-3.26-5.776-2.3996-8.9656 1.7098-2.5825 1.1445-2.8824 0.61352-3.7318-1.6368-1.251-2.6062 2.0466-6.6728 2.8293-3.5227 0.73663-6.6521-1.2563-6.4717 1.5972 0.15149 1.8534 0.9539 2.2145 2.4694 2.67 2.344 0.70451 4.3479 1.437 3.1395 8.2954-2.5679 12.294-11.032 15.131-19.864 15.51-5.4384 0.43473-11.614-3.3068-11.156-6.8027 0.4569-2.1771 2.9905-0.8752 5.1115 0.7618 1.1956 0.53065 3.6977 0.88963 5.4308 0.41536-0.27426-2.2512-1.8991-4.4856-4.3233-4.8212-2.065-0.28589-4.6443 0.92809-4.8584-0.98175-0.32825-6.5426 7.2047-1.5391 10.193-2.3087 6.1653-2.2595 2.627-8.4495 6.9499-11.569-3.2807 2.7027-10.035-5.9577-13.706 0.18006-2.1899 4.4357-1.82 3.7613-3.9033 6.1049-2.4679 1.8898-5.7149-1.5025-3.1366-3.5038 3.4612 0.15302 5.4075-3.6417 5.5873-7.39-2.5604 0.0566-5.4894 1.0959-6.3302 5.4516-2.9104 2.5114-4.7008-1.0975-2.4054-2.5889 3.5416-0.95257 2.672-7.6867-1.956-8.5939-5.2286-2.0068-6.4038 2.8649-16.054-3.8095 5.3047 4.3707 10.173 12.58 10.112 20.846 7.5785-2.192 11.334 7.0602 5.398 11.535 5.9033 7.2883 11.684 10.4 10.34 21.497l72.489-0.16119 72.489 0.16119c-1.3437-11.096 4.4368-14.208 10.34-21.497-5.9358-4.4749-2.1805-13.727 5.398-11.535-0.06058-8.2661 4.8075-16.475 10.112-20.846-9.6506 6.6744-10.826 1.8027-16.054 3.8095-4.6279 0.90724-5.4976 7.6414-1.956 8.5939 2.2953 1.4915 0.50503 5.1004-2.4054 2.5889-0.84079-4.3557-3.7697-5.395-6.3302-5.4516 0.17973 3.7482 2.1261 7.543 5.5873 7.39 2.5784 2.0013-0.66861 5.3936-3.1366 3.5038-2.0834-2.3436-1.7134-1.6691-3.9033-6.1049-3.6715-6.1378-10.425 2.5226-13.706-0.18006 4.3229 3.1193 0.78455 9.3093 6.9499 11.569 2.9882 0.76957 10.521-4.2339 10.193 2.3087-0.21408 1.9098-2.7934 0.69586-4.8584 0.98175-2.4242 0.33564-4.049 2.57-4.3233 4.8212 1.7331 0.47427 4.2352 0.11529 5.4308-0.41536 2.121-1.637 4.6546-2.9389 5.1115-0.7618 0.45745 3.4959-5.718 7.2374-11.156 6.8027-8.8322-0.37963-17.296-3.2159-19.864-15.51-1.2084-6.8584 0.79548-7.5909 3.1395-8.2954 1.5155-0.45549 2.3179-0.81652 2.4694-2.67 0.18042-2.8536-2.949-0.86062-6.4717-1.5972-4.0666-0.78269-5.036-4.0803-6.6728-2.8293-0.53094 0.8494-1.0962 1.1493 0.61352 3.7318 0.86041 3.1896 0.11561 5.1674-2.3996 8.9656-6.2943 8.5547-15.782 8.8797-22.936 3.3088-3.528-3.4618-6.7291-9.2781-6.6534-14.337 1.3645 0.35666 1.4639 0.51869 1.7579-1.4603 0.9083-0.94074 2.092 2.914 2.5572 4.6682 0.38807 2.2328 0.93231 3.5378 4.443 4.0941 0.51903-2.8222 0.16219-4.7955-1.6544-5.866-0.64879-0.61635-1.764-1.9408-2.829-3.4936 2.2059 0.22707 2.6735-0.1163 2.8357-2.1276 0.97318 1.9139 2.2383 4.4822 3.2115 6.3961 1.849 1.1029 5.8091 1.0179 7.3662-0.99338 1.7842-2.3681 2.8198-4.8837 5.6745-7.2518-2.1734-2.2059-4.0549-5.7742-5.4498-8.564-1.5895-2.141-5.3201-2.8222-7.3962-1.3625-0.74611 0.94075-1.3949 2.5627-1.7517 3.6981 0.06488-1.8815-0.6488-2.8871-3.0169-3.3088 0.75163-1.1231 1.8154-2.0382 3.5035-2.433 2.2676-1.9978 1.622-4.4118 2.433-6.6176-2.0572 0.98664-3.49 0.10043-5.5472 2.3356-0.63533 2.5976-1.6868 3.1142-2.5303 4.6713 0.05383-2.0204-0.72471-2.4801-2.3356-2.6276 5.4918-2.15 3.1594-7.1146 1.2015-9.0071-2.433-2.3032-4.7801-4.4867-7.4211-7.9344z" fill="#fcf000" stroke-width="2.126"/>
        <path d="m302.82 382.87 0.29073 1.5065c4.834 0.12047 6.1692 9.1751 2.1315 11.045l0.31041 1.6085c36.104-24.18 96.304-25.008 134.15-0.24842l0.45701-2.0565c-3.9769-1.605-2.6072-10.639 2.4207-10.893l0.6002-2.7009c-33.454-32.709-113.61-29.645-140.36 1.7389z" fill="#fff700" stroke-width="1px"/>
        <path d="m304.79 381.8c-4.0276 2.9248-6.0502 0.11183-4.1808-3.5015 29.255-34.004 114.61-32.858 143.98-1.8782 2.5144 2.0775 0.02253 7.1852-3.3477 4.6955-27.134-28.859-104.86-31.518-136.45 0.6842z" fill="#fff700" stroke-width="2.126"/>
        <rect transform="matrix(.7209 .69304 -.69304 .7209 0 0)" x="518.03" y=".28661" width="11.821" height="12.665" fill="url(#b)" stroke-linecap="round" stroke-linejoin="round" stroke-width="1.4173"/>
        <path d="m308.23 401.49c33.552-25.141 96.615-27.771 129.34 0.0358 2.9727 1.2228 4.8771-1.9708 2.7869-4.2781-33.559-27.189-104.44-25.869-134.63 0-2.1366 2.0012-0.51093 5.6319 2.5082 4.2423z" fill="#fcf000" stroke-width="2.126"/>
        <path transform="matrix(.97774 -.20982 .20982 .97774 -76.038 71.412)" d="m307.93 391.21a3.1421 5.2368 0 1 1-6.2842 0 3.1421 5.2368 0 1 1 6.2842 0z" fill="#0000fd" stroke-linecap="round" stroke-linejoin="round" stroke-width=".70866"/>
        <path transform="matrix(-.97774 -.20982 -.20982 .97774 821.33 70.681)" d="m307.93 391.21a3.1421 5.2368 0 1 1-6.2842 0 3.1421 5.2368 0 1 1 6.2842 0z" fill="#0000fd" stroke-linecap="round" stroke-linejoin="round" stroke-width=".70866"/>
        <path transform="matrix(.97928 .20253 -.20253 .97928 83.163 -72.802)" d="m397.64 370.5a2.6265 3.5816 0 1 1-5.253 0 2.6265 3.5816 0 1 1 5.253 0z" fill="#bcbfc8" stroke-linecap="round" stroke-linejoin="round" stroke-width="1.25"/>
        <path transform="matrix(1.1391 .49594 -.39917 .91688 112.03 -160.33)" d="m397.64 370.5a2.6265 3.5816 0 1 1-5.253 0 2.6265 3.5816 0 1 1 5.253 0z" fill="#e51e19" stroke-linecap="round" stroke-linejoin="round" stroke-width="1.1214"/>
        <rect transform="matrix(.42314 .90606 -.90606 .42314 0 0)" x="526.62" y="-229.92" width="4.2979" height="4.1387" fill="#fdfcf7" stroke-linecap="round" stroke-linejoin="round" stroke-width="1.25"/>
        <path transform="matrix(-.97928 .20253 .20253 .97928 662.9 -72.802)" d="m397.64 370.5a2.6265 3.5816 0 1 1-5.253 0 2.6265 3.5816 0 1 1 5.253 0z" fill="#bcbfc8" stroke-linecap="round" stroke-linejoin="round" stroke-width="1.25"/>
        <path transform="matrix(-1.1391 .49594 .39917 .91688 634.03 -160.33)" d="m397.64 370.5a2.6265 3.5816 0 1 1-5.253 0 2.6265 3.5816 0 1 1 5.253 0z" fill="#e51e19" stroke-linecap="round" stroke-linejoin="round" stroke-width="1.1214"/>
        <rect transform="matrix(-.42314 .90606 .90606 .42314 0 0)" x="210.93" y="446.06" width="4.2979" height="4.1387" fill="#fdfcf7" stroke-linecap="round" stroke-linejoin="round" stroke-width="1.25"/>
        <path transform="matrix(1.0995 0 0 1.0653 -30.699 -22.84)" d="m333.75 327.33a7.7132 7.981 0 1 1-15.426 0 7.7132 7.981 0 1 1 15.426 0z" fill="#fdfeff" stroke-linecap="round" stroke-linejoin="round" stroke-width="1.7325"/>
        <path transform="matrix(1.0995 0 0 1.0653 59.942 -22.84)" d="m333.75 327.33a7.7132 7.981 0 1 1-15.426 0 7.7132 7.981 0 1 1 15.426 0z" fill="#fdfeff" stroke-linecap="round" stroke-linejoin="round" stroke-width="1.7325"/>
        <path transform="matrix(1.1764 0 0 1.1764 36.043 -88.701)" d="m293.04 350.35a5.7351 5.7351 0 1 1-11.47 0 5.7351 5.7351 0 1 1 11.47 0z" fill="#fff503" stroke-linecap="round" stroke-linejoin="round" stroke-width="1.2751"/>
        <path transform="matrix(.69349 0 0 .69349 174.67 80.561)" d="m293.04 350.35a5.7351 5.7351 0 1 1-11.47 0 5.7351 5.7351 0 1 1 11.47 0z" fill="#00942d" stroke-linecap="round" stroke-linejoin="round" stroke-width="1.9827"/>
        <path transform="matrix(1.1391 .49594 -.39917 .91688 109.72 -184.53)" d="m397.64 370.5a2.6265 3.5816 0 1 1-5.253 0 2.6265 3.5816 0 1 1 5.253 0z" fill="#e51e19" stroke-linecap="round" stroke-linejoin="round" stroke-width="1.1214"/>
        <path transform="matrix(-1.1391 .49594 .39917 .91688 637.29 -184.53)" d="m397.64 370.5a2.6265 3.5816 0 1 1-5.253 0 2.6265 3.5816 0 1 1 5.253 0z" fill="#e51e19" stroke-linecap="round" stroke-linejoin="round" stroke-width="1.1214"/>
        <path transform="matrix(-1.2421 .026236 .021117 .99978 855.82 -33.699)" d="m397.64 370.5a2.6265 3.5816 0 1 1-5.253 0 2.6265 3.5816 0 1 1 5.253 0z" fill="#e51e19" stroke-linecap="round" stroke-linejoin="round" stroke-width="1.1214"/>
        <g stroke-width="3.5433">
          <path d="m372.51 402.57c-3.6774-2.1381-7.6058-7.2401-10.476-15.624-5.6754 4.9212-10.292 9.7366-16.497 12.858-2.26-2.1187 3.4191-9.2127 0.73561-8.8967-21.767 17.837-54.544 20.642-67.419 57.638-0.78964 4.3232 0.00857 10.552 6.8406 10.746 3.1085 0.08651 6.7463-1.0972 8.0552-4.9274 0.62198-3.1085-0.76731-6.3229-4.5913-6.044 5.3825-8.2731 19.805-4.7466 20.683 8.1611-1.5956 10.435-9.7436 18.608-24.272 18.751-9.9676-0.19935-20.832-5.4822-21.829-19.437 0.3987-9.6686 5.6977-15.218 17.759-26.382-7.376 5.8809-14.569 10.035-21.945 17.112-10.067 8.4725-20.733 13.656-33.491 16.447-15.35 0.09968-24.421-5.4822-29.006-18.839 11.263 0.19936 23.125-1.0964 31.996-8.3728-8.6718-3.688-15.549-4.9838-17.942-16.447-0.99676-8.8712 9.9676-16.845 11.363-12.26-3.2893 3.09-5.3825 7.6751-2.6913 11.064 5.6815 6.1799 11.961 6.3793 25.118 4.1864 16.746-8.9709 43.359-11.961 61.002-21.53 21.758-13.357 44.712-19.006 66.837-18.906 22.125-0.09968 45.079 5.5499 66.837 18.906 17.643 9.5689 44.256 12.559 61.002 21.53 13.157 2.1929 19.437 1.9935 25.118-4.1864 2.6912-3.389 0.59806-7.9741-2.6913-11.064 1.3955-4.5851 12.36 3.389 11.363 12.26-2.3922 11.463-9.2699 12.759-17.942 16.447 8.8712 7.2764 20.733 8.5722 31.996 8.3728-4.5851 13.357-13.656 18.938-29.006 18.839-12.759-2.7909-23.424-7.9741-33.491-16.447-7.376-7.077-15.399-10.401-22.775-16.282 12.061 11.164 18.19 15.883 18.588 25.552-0.99676 13.955-11.861 19.238-21.829 19.437-14.528-0.14373-22.676-8.3164-24.272-18.751 0.87855-12.908 15.301-16.434 20.683-8.1611-3.824-0.2789-5.2133 2.9355-4.5913 6.044 1.309 3.8302 4.9467 5.0139 8.0552 4.9274 6.832-0.19477 7.6302-6.4233 6.8406-10.746-12.875-36.997-45.652-39.802-67.419-57.638-2.6835-0.31597 2.9957 6.778 0.73561 8.8967-6.2046-3.1217-10.821-7.937-16.497-12.858-2.8698 8.3836-6.7982 13.486-10.938 15.624z" fill="#de2220"/>
          <path d="m225.03 463.36c-21.238 0.54067-32.173-14.077-30.078-35.959 4.1709-24.473 19.856-32.886 33.117-32.208 8.6017 1.4155 11.446 14.649-0.25399 19.397 12.832 2.1716 22.331-8.9894 22.133-18.635 0.00297-14.827-17.872-22.078-32.716-14.785 5.1809-6.0781 5.5136-14.58-5.3651-19.446-8.1694-3.342-15.43-3.9481-23.599-10.632 2.2681 12.51-1.221 16.535-5.0131 21.166-3.8114 4.309-7.0168 10.739-7.7981 18.381-2.8222-11.015-17.462-18.092-31.192-6.6841 18.433-5.4275 16.868 19.143 18.938 30.078 1.2195 31.656 6.9841 44.828 27.293 46.789-14.28-14.696-12.198-37.27-5.5701-56.815-8.4487 36.953-4.1709 69.367 40.105 59.353z" fill="#fff500"/>
          <path d="m519.47 463.67c21.238 0.54067 32.173-14.387 30.078-36.269-4.1709-24.473-19.856-32.886-33.117-32.208-8.6017 1.4155-11.446 14.649 0.25399 19.397-12.832 2.1716-22.331-8.9894-22.133-18.635-0.00297-14.827 17.872-22.078 32.716-14.785-5.1809-6.0781-5.5136-14.58 5.3651-19.446 8.1694-3.342 15.43-3.9481 23.599-10.632-2.2681 12.51 1.221 16.535 5.0131 21.166 3.8114 4.309 7.0168 10.739 7.7981 18.381 2.8222-11.015 17.462-18.092 31.192-6.6841-18.433-5.4275-16.868 19.143-18.938 30.078-1.2195 31.656-6.9841 44.828-27.293 46.789 14.28-14.696 12.198-37.27 5.5701-56.815 8.4487 36.953 4.1709 69.678-40.105 59.663z" fill="#fff500"/>
        </g>
      </g>
      <g transform="translate(-728.66)" stroke="#000">
        <path d="m317.67 417.53c39.864-13.703 75.741-13.952 110.62 1e-5 -1.9932 20.596-8.6542 32.531-16.795 43.865-29.473 12.46-44.73 12.294-74.723-0.088-10.523-13.095-15.865-25.09-19.104-43.777z" fill="#e01f22" fill-rule="evenodd" stroke-width="1px"/>
        <g>
          <g stroke-linejoin="round">
            <path d="m318.82 420.03c2.967 17.366 7.5773 32.756 18.904 44.597 0.07784 0.74216-0.33635 1.3617-0.54906 2.0044-0.22764 0.68779-0.20315 1.526-0.59386 2.1397 0.76557 0.00582 1.8296 0.65582 2.9199 1.0508 1.0954 0.39679 2.2173 0.41083 2.9352 1.0563 0.09172-0.98833 0.76313-1.997 1.0288-3.0294 0.25036-0.97308 0.30463-2.1205 0.8231-2.9345-0.86117-0.20758-1.583-0.66397-2.3298-0.96722-0.72607-0.29484-1.6048-0.35994-2.1399-0.89091-9.2502-12.426-14.212-25.229-16.394-44.253-0.08492-1.3333 1.0484-2.3959 1.4147-3.4133 0.41912-1.1642-0.47667-2.3929 0.89639-3.9438-2.0097-0.33205-2.4785-1.6453-3.6931-2.214-1.3389-0.62697-2.7104-0.43317-4.0796-1.7486-0.67371 1.8849-2.5351 2.4281-3.2251 3.9186-0.69897 1.5097-0.12229 2.9444-1.46 3.9343 1.5872 0.69023 1.6625 2.1435 2.677 2.9462 0.85189 0.674 2.4659 0.56629 2.8653 1.7484z" fill="#b0b0b0" fill-rule="evenodd" stroke-width="1.4173"/>
            <path transform="matrix(1.433 -.38467 .38082 1.4726 -295.84 -71.842)" d="m320.94 413.63a1.3536 1.6469 0 1 1-2.7072 0 1.3536 1.6469 0 1 1 2.7072 0z" fill="#fff10f" stroke-linecap="round" stroke-width=".66043"/>
            <path transform="translate(-.45537)" d="m342.2 466.73a1.3152 1.2896 0 1 1-2.6304 0 1.3152 1.2896 0 1 1 2.6304 0z" fill="#fff10f" stroke-linecap="round" stroke-width=".77953"/>
          </g>
          <g transform="matrix(-1 0 0 1 746.84 0)">
            <path d="m318.82 420.03c2.967 17.366 7.5773 32.756 18.904 44.597 0.07784 0.74216-0.33635 1.3617-0.54906 2.0044-0.22764 0.68779-0.20315 1.526-0.59386 2.1397 0.76557 0.00582 1.8296 0.65582 2.9199 1.0508 1.0954 0.39679 2.2173 0.41083 2.9352 1.0563 0.09172-0.98833 0.76313-1.997 1.0288-3.0294 0.25036-0.97308 0.30463-2.1205 0.8231-2.9345-0.86117-0.20758-1.583-0.66397-2.3298-0.96722-0.72607-0.29484-1.6048-0.35994-2.1399-0.89091-9.2502-12.426-14.212-25.229-16.394-44.253-0.08492-1.3333 1.0484-2.3959 1.4147-3.4133 0.41912-1.1642-0.47667-2.3929 0.89639-3.9438-2.0097-0.33205-2.4785-1.6453-3.6931-2.214-1.3389-0.62697-2.7104-0.43317-4.0796-1.7486-0.67371 1.8849-2.5351 2.4281-3.2251 3.9186-0.69897 1.5097-0.12229 2.9444-1.46 3.9343 1.5872 0.69023 1.6625 2.1435 2.677 2.9462 0.85189 0.674 2.4659 0.56629 2.8653 1.7484z" fill="#b0b0b0" fill-rule="evenodd" stroke-width="1.4173"/>
            <path transform="matrix(1.433 -.38467 .38082 1.4726 -295.57 -71.63)" d="m320.94 413.63a1.3536 1.6469 0 1 1-2.7072 0 1.3536 1.6469 0 1 1 2.7072 0z" fill="#fff10f" stroke-linecap="round" stroke-linejoin="round" stroke-width=".66043"/>
            <path transform="translate(-.25537)" d="m342.2 466.73a1.3152 1.2896 0 1 1-2.6304 0 1.3152 1.2896 0 1 1 2.6304 0z" fill="#fff10f" stroke-linecap="round" stroke-linejoin="round" stroke-width=".88583"/>
          </g>
          <g stroke-linecap="round" stroke-linejoin="round">
            <path d="m370.28 406.8 0.17091 63.135c-0.24905 0.91769-0.92155 1.0943-1.3823 1.6415-0.73304 0.87048-0.77795 2.0585-2.1991 2.6114 1.4222 0.4285 1.9975 1.7039 2.9962 2.5559 1.1005 0.93875 2.7303 1.1894 3.3015 2.8163 0.44907-1.8525 1.8509-1.9054 2.7764-2.8581 0.89046-0.91667 1.3575-2.3627 2.8831-2.75-1.5167-0.60845-1.5514-1.6403-2.2212-2.4605-0.48465-0.59344-1.0222-0.65756-1.1893-1.7803l-0.04083-62.675c0.92828-1.1068 1.8566-2.2136 2.7848-3.3204 1.0117-1.2062 0.75296-2.7829 3.035-3.6186-2.3244-0.7236-2.7434-2.4-4.115-3.5999-1.5281-1.3369-3.321-2.0915-3.8963-4.1164-0.58508 2.1098-3.2345 2.9493-4.5077 4.371-1.1991 1.339-1.1278 3.2073-3.5973 4.0169 2.3608 0.84831 1.9691 2.2259 2.9537 3.3389 0.74918 0.89753 1.4984 1.7951 2.2476 2.6926z" fill="#b0b0b0" fill-rule="evenodd" stroke-width="1.25"/>
            <path transform="matrix(1.2958 0 0 1.2958 -110.38 -118.62)" d="m375.71 400.98a2.5937 2.5937 0 1 1-5.1873 0 2.5937 2.5937 0 1 1 5.1873 0z" fill="#fff60e" stroke-width=".96464"/>
            <path transform="matrix(1.1437 0 0 1.1437 -53.898 -68.407)" d="m374.65 473.98a1.588 1.6409 0 1 1-3.1759 0 1.588 1.6409 0 1 1 3.1759 0z" fill="#fff60e" stroke-width=".61963"/>
          </g>
          <g stroke-linejoin="round">
            <path d="m363.51 469.12c-4.4329-10.016-6.0699-37.087-5.0506-60.384-0.09387-1.6289 1.757-2.2558 2.286-3.3137 0.61882-1.2376 0.25144-2.8905 1.8564-3.7129-1.7171-0.41791-2.3962-2.393-3.6981-3.4856-1.4928-1.2528-3.9198-1.5714-4.6859-3.5509-0.38167 2.2552-2.3205 2.9533-3.4807 4.43-1.0356 1.318-1.604 3.3107-3.1067 3.954 1.5609 0.58859 1.7722 2.2153 2.6583 3.3229 0.71083 0.88854 2.1483 1.6733 2.1325 2.6656-0.66261 24.875 0.71649 50.428 7.7851 61.383-0.04372 0.94086-0.60649 1.0512-0.90974 1.5769-0.44532 0.77189-0.26778 1.8033-1.336 2.3157 1.1949 0.20437 1.9746 1.1354 2.9619 1.7031 1.0089 0.5801 2.0696 0.43353 3.0266 1.7403-0.00732-1.4065 1.1273-1.8788 1.6909-2.8181 0.53627-0.92839 1.7192-2.2541 1.6088-2.7852-0.1022-0.49166-1.3939-1.0191-2.0909-1.5286-0.50275-0.31752-1.4048-0.77901-1.6481-1.5118z" fill="#b0b0b0" fill-rule="evenodd" stroke-width="1.375"/>
            <path transform="matrix(1.2249 0 0 1.2249 -54.896 -98.437)" d="m342.2 466.73a1.3152 1.2896 0 1 1-2.6304 0 1.3152 1.2896 0 1 1 2.6304 0z" fill="#fff10f" stroke-linecap="round" stroke-width=".57854"/>
            <path transform="matrix(2.0233 .13255 -.11314 1.8699 -244.79 -413.09)" d="m320.94 413.63a1.3536 1.6469 0 1 1-2.7072 0 1.3536 1.6469 0 1 1 2.7072 0z" fill="#fff10f" stroke-linecap="round" stroke-width=".5984"/>
          </g>
          <g transform="matrix(-1 0 0 1 746.33 0)" stroke-linejoin="round">
            <path d="m363.51 469.12c-4.4329-10.016-6.8833-35.46-5.0506-60.384-0.09387-1.6289 1.757-2.2558 2.286-3.3137 0.61882-1.2376 0.25144-2.8905 1.8564-3.7129-1.7171-0.41791-2.3962-2.393-3.6981-3.4856-1.4928-1.2528-3.9198-1.5714-4.6859-3.5509-0.38167 2.2552-2.3205 2.9533-3.4807 4.43-1.0356 1.318-1.604 3.3107-3.1067 3.954 1.5609 0.58859 1.7722 2.2153 2.6583 3.3229 0.71083 0.88854 2.1483 1.6733 2.1325 2.6656-0.66261 23.791 0.71649 50.428 7.7851 61.383-0.04372 0.94086-0.60649 1.0512-0.90974 1.5769-0.44532 0.77189-0.26778 1.8033-1.336 2.3157 1.1949 0.20437 1.9746 1.1354 2.9619 1.7031 1.0089 0.5801 2.0696 0.43353 3.0266 1.7403-0.00732-1.4065 1.1273-1.8788 1.6909-2.8181 0.53627-0.92839 1.7192-2.2541 1.6088-2.7852-0.1022-0.49166-1.3939-1.0191-2.0909-1.5286-0.50275-0.31752-1.4048-0.77901-1.6481-1.5118z" fill="#b0b0b0" fill-rule="evenodd" stroke-width="1.375"/>
            <path transform="matrix(1.2249 0 0 1.2249 -54.896 -98.437)" d="m342.2 466.73a1.3152 1.2896 0 1 1-2.6304 0 1.3152 1.2896 0 1 1 2.6304 0z" fill="#fff10f" stroke-linecap="round" stroke-width=".68268"/>
            <path transform="matrix(2.0233 .13255 -.11314 1.8699 -244.79 -413.09)" d="m320.94 413.63a1.3536 1.6469 0 1 1-2.7072 0 1.3536 1.6469 0 1 1 2.7072 0z" fill="#fff10f" stroke-linecap="round" stroke-width=".5984"/>
          </g>
          <g stroke-linecap="round" stroke-linejoin="round">
            <path d="m337.11 400.9c-0.07344 1.5793-1.8585 2.5596-2.7877 3.8393-1.0173 1.4011-1.3928 3.4012-3.052 4.2032 1.9419 0.48058 1.8299 1.9025 2.7448 2.8538 0.69523 0.72283 1.6044 1.1033 2.0857 2.1685-0.54822 21.942 0.9982 40.463 12.431 54.36 0.1218 0.90446-0.57509 0.82361-0.82359 1.3135-0.43185 0.85138-0.38769 1.6767-1.3662 2.4128 1.4426 0.29157 1.8736 1.2246 2.9116 1.8908 1.1479 0.73683 2.2528 0.61025 3.2416 2.1026 0.14981-1.7931 1.5223-2.1126 2.141-3.2435 0.59035-1.079 0.48068-2.3176 2.0559-3.0878-1.5619-0.34435-1.418-1.0252-2.1082-1.523-0.25969-0.18732-0.54515-0.39488-0.88747-0.64711-8.9315-9.807-13.242-21.249-12.759-54.239-0.31793-0.9096 1.0758-2.076 1.6136-2.9428 0.65722-1.0591 0.24468-2.7601 1.8005-3.6909-1.5728-0.45032-2.2042-1.7564-3.3064-2.6347-1.3117-1.0452-3.3508-1.7481-3.9351-3.1357z" fill="#b0b0b0" fill-rule="evenodd" stroke-width=".99921"/>
            <path transform="matrix(1.6828 -.0064684 .03625 1.5949 -214.73 -249.79)" d="m320.94 413.63a1.3536 1.6469 0 1 1-2.7072 0 1.3536 1.6469 0 1 1 2.7072 0z" fill="#fff10f" stroke-width=".54069"/>
            <path transform="matrix(1.1236 0 0 1.1236 -31.515 -53.845)" d="m342.2 466.73a1.3152 1.2896 0 1 1-2.6304 0 1.3152 1.2896 0 1 1 2.6304 0z" fill="#fff10f" stroke-width=".63069"/>
          </g>
          <g transform="matrix(-1 0 0 1 747.01 0)" stroke-linecap="round" stroke-linejoin="round">
            <path d="m337.11 400.9c-0.07344 1.5793-1.8585 2.5596-2.7877 3.8393-1.0173 1.4011-1.3928 3.4012-3.052 4.2032 1.9419 0.48058 1.8299 1.9025 2.7448 2.8538 0.69523 0.72283 1.6044 1.1033 2.0857 2.1685-0.54822 21.942 0.9982 40.463 12.431 54.36 0.1218 0.90446-0.57509 0.82361-0.82359 1.3135-0.43185 0.85138-0.38769 1.6767-1.3662 2.4128 1.4426 0.29157 1.8736 1.2246 2.9116 1.8908 1.1479 0.73683 2.2528 0.61025 3.2416 2.1026 0.14981-1.7931 1.5223-2.1126 2.141-3.2435 0.59035-1.079 0.48068-2.3176 2.0559-3.0878-1.5619-0.34435-1.418-1.0252-2.1082-1.523-0.25969-0.18732-0.54515-0.39488-0.88747-0.64711-8.9315-9.807-13.242-22.876-12.759-54.239-0.31793-0.9096 1.0758-2.076 1.6136-2.9428 0.65722-1.0591 0.24468-2.7601 1.8005-3.6909-1.5728-0.45032-2.2042-1.7564-3.3064-2.6347-1.3117-1.0452-3.3508-1.7481-3.9351-3.1357z" fill="#b0b0b0" fill-rule="evenodd" stroke-width="1"/>
            <path transform="matrix(1.6828 -.0064684 .03625 1.5949 -214.73 -249.79)" d="m320.94 413.63a1.3536 1.6469 0 1 1-2.7072 0 1.3536 1.6469 0 1 1 2.7072 0z" fill="#fff10f" stroke-width=".54069"/>
            <path transform="matrix(1.1236 0 0 1.1236 -31.515 -53.845)" d="m342.2 466.73a1.3152 1.2896 0 1 1-2.6304 0 1.3152 1.2896 0 1 1 2.6304 0z" fill="#fff10f" stroke-width=".63069"/>
          </g>
        </g>
      </g>
      <g transform="translate(-727.42)" fill-rule="evenodd" stroke="#000" stroke-width="3.5433">
        <path d="m183.76 581.41v52.217c-19.319 21.517-36.956 41.772-64.267 58.242-20.599 11.26-42.038 29.67-54.225 55.229-20.694-23.997-23.304-54.302 0.58359-82.084 14.29-10.145 35.309-15.664 54.646-20.341 12.369-1.3302 12.961-10.651-2.0083-9.0375-18.624 8.4291-57.436 8.4466-77.321-10.042 44.166 21.863 109.78-1.6971 142.59-44.183z" fill="#fff500"/>
        <path d="m135.43 620c-18.981-4.4977-38.877-14.853-38.273-34.908 4.0421-17.797 10.647-22.782 28.051-18.249 6.9942 2.2276 10.511 1.3436 12.746-3.2011-4.346 2.7651-9.4242-0.87618-12.306-3.9683-18.693-14.094-39.399-2.9289-43.083 18.852-3.7464-4.4589-4.0151-11.846 0.29206-21.613 3.7231-8.2208 4.3345-21.384-4.2058-30.703 4.3852 11.075-2.9439 22.151-14.3 32.311-15.535 13.1-15.694 40.294 3.3647 55.591-6.5463-3.1973-10.752-3.174-20.188 0.84117-6.6515 4.5409-12.699 2.1809-15.562-5.047 3.1886 32.468 67.675 29.713 103.46 10.094z" fill="#da251e"/>
        <path d="m83.953 799.8c-2.0599-4.2455-11.414 0.84508-7.0549 5.6439 10.561 14.902 26.082 27.178 46.562 33.62 29.007 8.3703 36.716 15.282 48.217 32.988 3.3665 7.1593 9.3588 16.069 17.393 15.935 12.537 0.36972 9.6103-14.724-3.5274-15.521 29.175-6.274 29.175 35.3 0 34.569 6.8411 2.8396 7.5554 7.4297 6.2274 15.521-0.73567 7.451 3.7802 13.443 8.5879 16.226-17.894 0.11695-34.037-9.6857-39.386-24.448-15.13 24.212-48.64 30.918-76.315 23.037 26.965 3.8532 43.134-9.2154 49.384-22.576 13.071-27.884-11.786-53.142-45.979-68.48-26.638-17.133-46.565-34.85-36.442-82.908 5.8791 9.1714 18.177 29.429 19.096 26.055-20.177-31.755-27.219-38.243-26.605-63.57-0.45938-15.946 3.959-31.203 11.62-48.141-11.966 35.148-6.1344 60.667 21.87 78.31 24.456 12.257 37.533-13.705 23.186-24.496-28.005-11.197-38.212-44.276-18.077-63.934-4.746 20.18-2.49 33.942 14.646 41.868 14.632 3.4885 17.01 4.9347 17.637 18.343-0.03898 9.6279 9.5499 5.5433 7.4686-1.7505-8.9599-31.542-5.6662-49.955 19.801-81.497-5.292 13.461-4.4572 27.505-1.8718 39.508 4.5071 8.8796 6.3884 15.425 4.1852 26.055 0.30649 3.8187 2.6783 2.4088 3.6085-0.73439 1.6312-24.569 23.972-12.517 26.362-2.9892 7.9115 21.71-4.0163 31.458-14.194 21.074 9.0126 5.3976 8.1055-6.1264 5.7396-12.107-5.4598-8.9957-14.712-5.7378-12.587 10.941 2.0897 29.733-20.911 48.672-42.745 48.063-8.1125-2.2032-9.2229 6.0966-0.70549 5.6439 16.557 1.5367 32.239-1.5946 40.918-15.521 3.6634 9.8955 1.4918 21.542-8.2654 23.56 13.82 3.9402 21.806 11.381 23.081 25.825-0.89663 12.568 9.8769 21.635 14.815 32.453-8.0874-7.5076-19.968-15.891-37.391-15.521-16.944 1.3104-29.221-2.0473-32.453-12.699-0.72241-5.4794-6.6964-6.8742-5.6682-1.5586 4.2598 6.8268 2.3929 4.3175-3.8504 3.8504-8.6809-4.8359-12.402-12.298-17.29-20.635z" fill="#da251e"/>
        <path d="m134.3 914.4c-6.0096 15.155-21.426 25.606-48.599 23.516-20.555-10.19-27-26.39-26.129-44.68 0.43548-14.719 11.584-24.996 29.264-26.913 13.587-1.3064 18.813 15.416 6.5322 15.677 1.6548-4.4419 2.0032-7.316-2.3516-10.19-7.4031 0.78386-11.41 7.8386-8.6225 18.029 3.3096 7.1418 8.4483 11.41 17.506 15.939-2.4387-9.5805 2.7-16.809 11.497-16.984-10.8 11.41 3.4838 29.351 20.903 25.606z" fill="#fff500"/>
        <g transform="matrix(-1 0 0 1 747.15 0)">
          <path d="m183.76 581.41v52.217c-19.319 21.517-36.956 41.772-64.267 58.242-20.599 11.26-42.038 29.67-54.225 55.229-20.694-23.997-23.304-54.302 0.58359-82.084 14.29-10.145 35.309-15.664 54.646-20.341 12.369-1.3302 12.961-10.651-2.0083-9.0375-18.624 8.4291-57.436 8.4466-77.321-10.042 44.166 21.863 109.78-1.6971 142.59-44.183z" fill="#fff500"/>
          <path d="m135.43 620c-18.981-4.4977-38.877-14.853-38.273-34.908 4.0421-17.797 10.647-22.782 28.051-18.249 6.9942 2.2276 10.511 1.3436 12.746-3.2011-4.346 2.7651-9.4242-0.87618-12.306-3.9683-18.693-14.094-39.399-2.9289-43.083 18.852-3.7464-4.4589-4.0151-11.846 0.29206-21.613 3.7231-8.2208 4.3345-21.384-4.2058-30.703 4.3852 11.075-2.9439 22.151-14.3 32.311-15.535 13.1-15.694 40.294 3.3647 55.591-6.5463-3.1973-10.752-3.174-20.188 0.84117-6.6515 4.5409-12.699 2.1809-15.562-5.047 3.1886 32.468 67.675 29.713 103.46 10.094z" fill="#da251e"/>
          <path d="m83.953 799.8c-2.0599-4.2455-11.414 0.84508-7.0549 5.6439 10.561 14.902 26.082 27.178 46.562 33.62 29.007 8.3703 36.716 15.282 48.217 32.988 3.3665 7.1593 9.3588 16.069 17.393 15.935 12.537 0.36972 9.6103-14.724-3.5274-15.521 29.175-6.274 29.175 35.3 0 34.569 6.8411 2.8396 7.5554 7.4297 6.2274 15.521-0.73567 7.451 3.7802 13.443 8.5879 16.226-17.894 0.11695-34.037-9.6857-39.386-24.448-15.13 24.212-48.64 30.918-76.315 23.037 26.965 3.8532 43.134-9.2154 49.384-22.576 13.071-27.884-11.786-53.142-45.979-68.48-26.638-17.133-46.565-34.85-36.442-82.908 5.8791 9.1714 18.177 29.429 19.096 26.055-20.177-31.755-27.219-38.243-26.605-63.57-0.45938-15.946 3.959-31.203 11.62-48.141-11.966 35.148-6.1344 60.667 21.87 78.31 24.456 12.257 37.533-13.705 23.186-24.496-28.005-11.197-38.212-44.276-18.077-63.934-4.746 20.18-2.49 33.942 14.646 41.868 14.632 3.4885 17.01 4.9347 17.637 18.343-0.03898 9.6279 9.5499 5.5433 7.4686-1.7505-8.9599-31.542-5.6662-49.955 19.801-81.497-5.292 13.461-4.4572 27.505-1.8718 39.508 4.5071 8.8796 6.3884 15.425 4.1852 26.055 0.30649 3.8187 2.6783 2.4088 3.6085-0.73439 1.6312-24.569 23.972-12.517 26.362-2.9892 7.9115 21.71-4.0163 31.458-14.194 21.074 9.0126 5.3976 8.1055-6.1264 5.7396-12.107-5.4598-8.9957-14.712-5.7378-12.587 10.941 2.0897 29.733-20.911 48.672-42.745 48.063-8.1125-2.2032-9.2229 6.0966-0.70549 5.6439 16.557 1.5367 32.239-1.5946 40.918-15.521 3.6634 9.8955 1.4918 21.542-8.2654 23.56 13.82 3.9402 21.806 11.381 23.081 25.825-0.89663 12.568 9.8769 21.635 14.815 32.453-8.0874-7.5076-19.968-15.891-37.391-15.521-16.944 1.3104-29.221-2.0473-32.453-12.699-0.72241-5.4794-6.6964-6.8742-5.6682-1.5586 4.2598 6.8268 2.3929 4.3175-3.8504 3.8504-8.6809-4.8359-12.402-12.298-17.29-20.635z" fill="#da251e"/>
          <path d="m134.3 914.4c-6.0096 15.155-21.426 25.606-48.599 23.516-20.555-10.19-27-26.39-26.129-44.68 0.43548-14.719 11.584-24.996 29.264-26.913 13.587-1.3064 18.813 15.416 6.5322 15.677 1.6548-4.4419 2.0032-7.316-2.3516-10.19-7.4031 0.78386-11.41 7.8386-8.6225 18.029 3.3096 7.1418 8.4483 11.41 17.506 15.939-2.4387-9.5805 2.7-16.809 11.497-16.984-10.8 11.41 3.4838 29.351 20.903 25.606z" fill="#fff500"/>
        </g>
      </g>
    </g>
    <g transform="translate(770.38 5)">
      <path d="m226.45 600.96v215.41c0.61955 13.507-9.344 49.823-12.921 51.47-4.6962-1.0948-14.092-38.364-13.727-51.47v-215.41c0-6.3546 26.648-6.3546 26.648 0z" fill="#fafaf1" stroke="#000" stroke-linecap="round" stroke-linejoin="round" stroke-width="2.126"/>
      <path d="m344.81 617.22c-46.67 0.84739-84.281 37.282-84.281 82.031 0 45.28 38.501 82.031 85.938 82.031 2.3057 0 4.5837-0.0796 6.8438-0.25-25.348-18.367-41.719-47.458-41.719-80.156-1e-5 -34.462 18.193-64.881 45.906-83-3.6128-0.44263-7.293-0.65625-11.031-0.65625-0.5559 0-1.1028-0.01005-1.6562 0z" fill="#fff500" stroke="#000" stroke-linecap="round" stroke-linejoin="round" stroke-width="2.8346"/>
      <path d="m84.149 617.22c46.67 0.84739 84.281 37.282 84.281 82.031 0 45.28-38.501 82.031-85.938 82.031-2.3057 0-4.5837-0.0796-6.8438-0.25 25.348-18.367 41.719-47.458 41.719-80.156 1e-5 -34.462-18.193-64.881-45.906-83 3.6128-0.44263 7.293-0.65625 11.031-0.65625 0.5559 0 1.1028-0.01005 1.6562 0z" fill="#fff500" stroke="#000" stroke-linecap="round" stroke-linejoin="round" stroke-width="2.8346"/>
      <rect x="201.84" y="525.79" width="19.741" height="64.074" rx="4.2303" ry="11.47" fill="#fff500" stroke="#000" stroke-linecap="round" stroke-linejoin="round" stroke-width="2.126"/>
      <path transform="matrix(.94754 0 0 .94754 10.277 27.754)" d="m226.88 512.65a14.61 14.61 0 1 1-29.22 0 14.61 14.61 0 1 1 29.22 0z" fill="#fff500" stroke="#000" stroke-linecap="round" stroke-linejoin="round" stroke-width="2.2437"/>
      <path d="m167.58 584.13c31.261 8.27 61.121 6.738 90.238 0v19.626c-11.168-4.2879-33.097-12.2-44.899 0-13.501-12.086-35.866-5.2375-45.338 0v-19.626z" fill="#fff500" stroke="#000" stroke-linecap="round" stroke-linejoin="round" stroke-width="2.126"/>
      <path d="m212.77 603.05-0.13859 256.32" fill="none" stroke="#a2a2a2" stroke-width="4.8969"/>
      <path d="m212.5 601.61v265.77" fill="none" stroke="#000" stroke-width="1.7717"/>
    </g>
  </g>
</svg>
