<svg width="88" height="88" viewBox="0 0 88 88" fill="none" xmlns="http://www.w3.org/2000/svg">
<g clip-path="url(#clip0_8_2)">
<path d="M0 0H88V88H0V0Z" fill="#FFD2D2"/>
<path d="M62.6633 20.6433L27.3533 18.3333C27.3533 18.3333 31.3867 69.1166 31.02 68.8599C30.5 69.5 29 70 29 70L30.8 77.9899L56 77L60.5 48.5L62.6633 20.6433Z" fill="#FAB687" fill-opacity="0.7"/>
<g style="mix-blend-mode:difference">
<path d="M56.2467 68.7133L53.6433 54.0466L51.8833 56.6866C50.7786 58.3776 49.4179 59.8866 47.85 61.16C46.8326 61.5759 45.7394 61.7744 44.6406 61.7428C43.5419 61.7113 42.4619 61.4503 41.47 60.9766C40.1562 60.0234 38.9292 58.9559 37.8033 57.7866C37.1433 57.0533 35.6767 54.9999 34.6133 53.8633C34.6133 54.6699 35.86 59.8766 35.86 60.2066C38.183 63.3224 41.3013 65.7561 44.888 67.2527C48.4748 68.7493 52.398 69.2538 56.2467 68.7133V68.7133Z" fill="#FFD2B4" fill-opacity="0.1"/>
</g>
<path d="M81.5 87.9999C81.5 87.9999 79.1823 82.6965 77 79.8599C72.7657 74.3561 62.2467 71.5133 61 71C59.7533 70.4867 57 69 57 69C57 69 53.8633 77.1099 42.2033 77.1099C39.6207 76.9461 37.1183 76.1477 34.9181 74.7853C32.7179 73.423 30.2978 72.2389 29 70C22.3447 72.3457 11.8382 77.7066 9.83844 80.3561C7.83866 83.0055 6.5 87.9999 6.5 87.9999H81.5Z" fill="#A0084C"/>
<path d="M71.3167 41.9467C69.8128 39.558 69.2266 36.7049 69.6666 33.9167C68.42 29.2601 66.5133 21.1567 61.49 17.0501C59.1433 15.2167 57.0166 11.0734 53.2766 10.5967C52.0456 10.5594 50.8146 10.6701 49.61 10.9267C49.61 10.9267 43.12 7.81005 39.1233 9.27672C35.6766 9.60672 16.3166 24.1634 22 29.3334C22 29.3334 20.8266 29.7001 20.3866 27.3901C20.0425 28.0592 19.8629 28.8009 19.8629 29.5534C19.8629 30.3059 20.0425 31.0475 20.3866 31.7167C20.3866 31.7167 14.08 38.6467 15.84 42.2034C16.1839 42.8355 16.5634 43.4476 16.9766 44.0367C15.8766 45.2467 13.31 48.3267 14.3733 50.82C14.74 51.7734 14.0433 52.4334 14.3733 52.9834C14.6112 53.4542 14.9417 53.8723 15.3449 54.2125C15.7481 54.5527 16.2158 54.8081 16.72 54.9634L17.82 58.1901C20.0933 65.2301 26.9133 66.8067 33.22 69.9967C32.3033 66.9167 34.3933 67.1 35.2366 64.68C36.1119 61.9727 36.4483 59.1201 36.2266 56.2834C36.108 55.6405 35.8584 55.029 35.4933 54.4867C32.5949 51.7296 30.8297 47.9901 30.5433 44.0001C30.7266 42.1667 29.8466 41.4334 29.8833 39.2701C29.92 37.1067 31.2766 39.7467 31.46 38.8667C31.79 37.1801 31.9366 34.0634 32.8166 33.2567C35.7133 30.5434 34.5033 32.5234 37.8033 29.5901C42.2766 25.6667 38.94 29.3334 42.2766 25.6667C44.1314 23.753 46.2865 22.1552 48.6567 20.9367C50.1991 23.3202 52.6034 25.015 55.3666 25.6667C56.7966 26.4367 55.8066 30.9834 55.7333 33.1834C55.7333 34.7967 55.7333 37.6567 57.3466 37.6567C60.1333 34.9067 61.0133 38.9767 60.83 41.8C60.8012 42.3092 60.7151 42.8135 60.5733 43.3034C60.4631 43.7647 60.2904 44.2088 60.06 44.6234C59.6566 45.8701 57.09 45.2834 57.2 45.9801C57.3877 46.9241 57.3877 47.896 57.2 48.84C56.2799 50.8357 55.0415 52.6685 53.5333 54.2667C52.6167 55.5501 51.3499 61.755 53.3133 65.8167C54.0863 67.4157 54.9239 68.7938 55.99 69.4934C58.093 70.6271 60.6121 70.577 63 70.5C62.7898 68.4575 63.0863 66.0082 64.13 64.2401C65.2507 63.1418 66.4791 62.159 67.7966 61.3067C67.7966 61.3067 70.6567 58.2634 69.19 57.6401C67.7233 57.0167 70.0333 56.1367 70.0333 56.1367L68.2367 55.0001C68.2367 55.0001 70.6933 54.4501 69.85 53.2401C69.0066 52.0301 72.3433 48.07 72.3433 48.07C72.3433 48.07 73.81 46.1634 71.3167 41.9467Z" fill="#6E0D33"/>
</g>
<defs>
<clipPath id="clip0_8_2">
<rect width="88" height="88" fill="white"/>
</clipPath>
</defs>
</svg>
