<svg width="88" height="88" viewBox="0 0 88 88" fill="none" xmlns="http://www.w3.org/2000/svg">
<g clip-path="url(#clip0_8_13)">
<path d="M0 0H88V88H0V0Z" fill="#A6EEFA"/>
<path d="M28.3433 40.59C28.3433 40.59 26.07 34.6133 25.6667 33.66C25.2633 32.7066 25.9233 29.3333 25.6667 28.7833C25.41 28.2333 24.9333 18.3333 28.3433 15.2166C29.9856 13.7469 31.8243 12.5129 33.8067 11.55C33.8067 11.55 33.8067 10.3033 37.1067 10.3033C40.4067 10.3033 37.5467 8.28663 42.7167 9.0933C44.7538 9.48222 46.81 9.76372 48.8767 9.93663H50.0133C50.0133 9.93663 54.1567 11.55 53.9 13.31C53.6433 15.07 58.0433 13.31 58.0433 13.31V14.3C58.0433 14.3 61.71 14.3 61.71 23.7966C61.71 33.2933 61.0133 36.0066 59.9867 36.52C59.1073 37.1847 58.3715 38.0203 57.8233 38.9766C57.8233 38.9766 47.6667 46.09 28.3433 40.59V40.59Z" fill="#003057"/>
<path d="M57.0533 64.4967C55.77 63.5433 55.66 53.8267 55.66 53.8267C56.3259 53.0883 56.7595 52.1701 56.9067 51.1867C56.8977 49.5524 57.3556 47.9495 58.2267 46.5667C58.7712 46.5416 59.2843 46.3047 59.6567 45.9067C60.2067 45.21 60.3533 40.8833 60.7933 39.6367C61.2333 38.39 61.49 36.3733 60.06 36.52C58.63 36.6667 57.9333 38.9767 57.9333 38.9767C58.0881 36.8807 57.8898 34.7736 57.3467 32.7434C56.5033 30.2867 58.08 24.86 54.6333 22.8067C53.1113 22.0259 51.4503 21.5528 49.7453 21.4144C48.0403 21.2759 46.3247 21.475 44.6967 22C41.5955 22.561 38.4026 22.3212 35.42 21.3033C32.67 20.35 30.3967 24.97 29.9567 26.8767C29.1262 30.8076 28.5505 34.7882 28.2333 38.7933V40.3333C28.2333 40.3333 27.2433 35.97 26.3633 35.7133C25.4833 35.4567 23.9433 35.4567 24.2367 38.6833C24.53 41.91 24.86 39.4167 26.1067 45.5033C26.7667 49.17 28.05 46.31 28.05 46.31C28.2361 49.7286 29.5222 52.9954 31.7167 55.6233V60.6833C31.7578 62.1457 31.312 63.5802 30.4492 64.7616C29.5864 65.943 28.3555 66.8042 26.95 67.21C42.8267 84.15 63.2867 67.76 63.2867 67.76C63.2867 67.76 57.8233 65.0467 57.0533 64.4967V64.4967Z" fill="#FBBE9D"/>
<path d="M55.66 53.8267C53.6446 56.1786 51.369 58.2944 48.8767 60.1333C46.8051 61.2803 44.4497 61.8135 42.0861 61.6707C39.7224 61.5278 37.4484 60.7148 35.53 59.3267C34.0532 58.4 32.8096 56.9741 31.713 55.6187V58.4053C39.4863 69.0753 51.2788 64.6554 57.1455 64.5454C55.7188 63.5134 55.66 53.8267 55.66 53.8267Z" fill="#E3AE90"/>
<path d="M88 88C88 88 86.2607 79.5928 82.5 76.5001C74 69.5097 58.2773 65.2031 58.2773 65.2031C58.2773 65.2031 55.2934 71.6833 43.23 71.6833C40.7112 71.6802 38.2257 71.1081 35.9591 70.0097C33.6924 68.9113 31.5866 67.2641 30.0234 65.2891C23.2763 67.387 11.4292 71.6142 4.49448 77.1196C0.699158 80.1327 0 88 0 88H88Z" fill="#01496E"/>
</g>
<defs>
<clipPath id="clip0_8_13">
<rect width="88" height="88" fill="white"/>
</clipPath>
</defs>
</svg>
